<svg width="40" height="40" viewBox="0 0 40 40" fill="none" xmlns="http://www.w3.org/2000/svg">
<g clip-path="url(#clip0_3226_2467)">
<path d="M8.20311 0H1.17187C0.52414 0 0 0.52414 0 1.17187V8.28123C0 8.92897 0.52414 9.45311 1.17187 9.45311C1.81961 9.45311 2.34375 8.92897 2.34375 8.28123V2.34375H8.20311C8.85084 2.34375 9.37498 1.81961 9.37498 1.17187C9.37498 0.52414 8.85084 0 8.20311 0Z" fill="#3F3F3F"/>
<path d="M38.8281 0H31.7969C31.1491 0 30.625 0.52414 30.625 1.17187C30.625 1.81961 31.1491 2.34375 31.7969 2.34375H37.6562V8.28123C37.6562 8.92897 38.1804 9.45311 38.8281 9.45311C39.4758 9.45311 40 8.92897 40 8.28123V1.17187C39.9999 0.52414 39.4758 0 38.8281 0Z" fill="#3F3F3F"/>
<path d="M38.8281 30.5469C38.1804 30.5469 37.6562 31.071 37.6562 31.7187V37.6562H31.7969C31.1491 37.6562 30.625 38.1804 30.625 38.8281C30.625 39.4758 31.1491 40 31.7969 40H38.8281C39.4758 40 40 39.4758 40 38.8281V31.7187C39.9999 31.071 39.4758 30.5469 38.8281 30.5469Z" fill="#3F3F3F"/>
<path d="M8.20311 37.6562H2.34375V31.7187C2.34375 31.071 1.81961 30.5469 1.17187 30.5469C0.52414 30.5469 0 31.071 0 31.7187V38.8281C0 39.4758 0.52414 40 1.17187 40H8.20311C8.85084 40 9.37498 39.4758 9.37498 38.8281C9.37498 38.1804 8.85084 37.6562 8.20311 37.6562Z" fill="#3F3F3F"/>
<path d="M34.1406 7.10937C34.7878 7.10937 35.3125 6.58471 35.3125 5.9375C35.3125 5.29029 34.7878 4.76562 34.1406 4.76562C33.4934 4.76562 32.9688 5.29029 32.9688 5.9375C32.9688 6.58471 33.4934 7.10937 34.1406 7.10937Z" fill="#3F3F3F"/>
<path d="M20 18.8281C19.3534 18.8281 18.8281 19.3534 18.8281 20C18.8281 20.6466 19.3534 21.1719 20 21.1719C20.6466 21.1719 21.1719 20.6466 21.1719 20C21.1719 19.3534 20.6466 18.8281 20 18.8281Z" fill="#3F3F3F"/>
<path d="M20 9.45312C14.1841 9.45312 9.375 14.1841 9.375 20C9.375 25.8158 14.1841 30.5468 20 30.5468C25.8158 30.5468 30.625 25.8158 30.625 20C30.625 14.1841 25.8158 9.45312 20 9.45312ZM20 23.5156C18.0614 23.5156 16.4844 21.9386 16.4844 20C16.4844 18.0614 18.0614 16.4844 20 16.4844C21.9386 16.4844 23.5156 18.0614 23.5156 20C23.5156 21.9385 21.9386 23.5156 20 23.5156Z" fill="#3F3F3F"/>
<path d="M9.75994 12.0977C4.23792 14.9005 0.531366 18.9594 0.29871 19.2189C-0.0995701 19.664 -0.0995701 20.337 0.29871 20.7822C0.531366 21.0416 4.23792 25.1006 9.75994 27.9034C8.05666 25.718 7.03128 22.9796 7.03128 20.0005C7.03128 17.0214 8.05666 14.283 9.75994 12.0977Z" fill="#3F3F3F"/>
<path d="M39.7015 19.2189C39.4688 18.9594 35.7623 14.9005 30.2402 12.0977C31.9435 14.283 32.9689 17.0215 32.9689 20.0005C32.9689 22.9796 31.9435 25.718 30.2402 27.9034C35.7623 25.1006 39.4689 21.0417 39.7015 20.7822C40.0997 20.3369 40.0997 19.664 39.7015 19.2189Z" fill="#3F3F3F"/>
</g>
<defs>
<clipPath id="clip0_3226_2467">
<rect width="40" height="40" fill="white"/>
</clipPath>
</defs>
</svg>
