<svg width="34" height="40" viewBox="0 0 34 40" fill="none" xmlns="http://www.w3.org/2000/svg">
<path d="M20.0872 23.0602C20.0872 21.1198 18.5086 19.541 16.568 19.541C14.6276 19.541 13.0488 21.1197 13.0488 23.0602V25.4339C14.1382 25.868 15.3257 26.1069 16.568 26.1069C17.8104 26.1069 18.9978 25.8679 20.0872 25.4339V23.0602Z" fill="#3F3F3F"/>
<path d="M13.393 18.1353C13.0048 17.7096 12.7017 17.2055 12.5085 16.6504C11.9001 16.9822 11.4863 17.6279 11.4863 18.3684C11.4863 18.8036 11.6297 19.2132 11.8795 19.5451C12.2961 18.9905 12.8094 18.513 13.393 18.1353Z" fill="#3F3F3F"/>
<path d="M18.5243 15.2407C18.5243 14.1624 17.6471 13.2852 16.5688 13.2852C15.4905 13.2852 14.6133 14.1624 14.6133 15.2407C14.6133 16.319 15.4905 17.1962 16.5688 17.1962C17.6471 17.1962 18.5243 16.319 18.5243 15.2407Z" fill="#3F3F3F"/>
<path d="M16.5689 7.03125C11.3099 7.03125 7.03125 11.3099 7.03125 16.5689C7.03125 19.6192 8.47086 22.3395 10.7061 24.0866V23.0598C10.7061 22.6261 10.7548 22.2037 10.8446 21.7965C9.7865 20.9966 9.14239 19.7395 9.14239 18.3688C9.14239 16.358 10.5303 14.6658 12.3984 14.1983C12.8659 12.3303 14.5581 10.9423 16.5689 10.9423C18.9395 10.9423 20.868 12.871 20.868 15.2415C20.868 16.3552 20.4422 17.3713 19.745 18.1357C21.3599 19.1809 22.4316 20.997 22.4316 23.0597V24.0865C24.6669 22.3394 26.1065 19.6191 26.1065 16.5688C26.1065 11.3099 21.8279 7.03125 16.5689 7.03125Z" fill="#3F3F3F"/>
<path d="M16.5685 0C7.43259 0 0 7.43259 0 16.5685C0 20.9942 1.72343 25.1549 4.8528 28.2843L16.5685 40L28.2843 28.2843C31.4137 25.1549 33.1371 20.9942 33.1371 16.5685C33.1371 7.43259 25.7044 0 16.5685 0ZM16.5685 28.4498C10.0172 28.4498 4.68726 23.1198 4.68726 16.5685C4.68726 10.0172 10.0172 4.68726 16.5685 4.68726C23.1198 4.68726 28.4498 10.0172 28.4498 16.5685C28.4498 23.1198 23.1198 28.4498 16.5685 28.4498Z" fill="#3F3F3F"/>
</svg>
