<svg width="40" height="40" viewBox="0 0 40 40" fill="none" xmlns="http://www.w3.org/2000/svg">
<g clip-path="url(#clip0_3227_2480)">
<path d="M20 0C8.08328 0 0 7.34969 0 14.1406V15.3125C0 15.9602 0.524141 16.4844 1.17188 16.4844C1.81961 16.4844 2.34375 15.9602 2.34375 15.3125C2.34375 14.6659 2.86906 14.1406 3.51562 14.1406H8.28125C8.92781 14.1406 9.45312 14.6659 9.45312 15.3125C9.45312 15.9602 9.97727 16.4844 10.625 16.4844C11.2727 16.4844 11.7969 15.9602 11.7969 15.3125C11.7969 14.6659 12.3222 14.1406 12.9688 14.1406H17.6562C18.3028 14.1406 18.8281 14.6659 18.8281 15.3125V21.3682C14.2098 21.9508 10.625 25.8487 10.625 30.625C10.625 35.8026 14.8223 40 20 40C25.1777 40 29.375 35.8026 29.375 30.625C29.375 25.8487 25.7902 21.9508 21.1719 21.3682V15.3125C21.1719 14.6659 21.6972 14.1406 22.3438 14.1406H27.0312C27.6778 14.1406 28.2031 14.6659 28.2031 15.3125C28.2031 15.9602 28.7273 16.4844 29.375 16.4844C30.0227 16.4844 30.5469 15.9602 30.5469 15.3125C30.5469 14.6659 31.0722 14.1406 31.7188 14.1406H36.4844C37.1309 14.1406 37.6562 14.6659 37.6562 15.3125C37.6562 15.9602 38.1804 16.4844 38.8281 16.4844C39.4759 16.4844 40 15.9602 40 15.3125V14.1406C40 7.34969 31.9167 0 20 0ZM22.4997 26.6866C23.0175 27.0749 23.1224 27.8095 22.7341 28.3272C22.3457 28.8449 21.6113 28.9499 21.0934 28.5616C20.624 28.2095 19.7216 28.1834 19.0818 28.5031C18.8234 28.6323 18.6882 28.784 18.6882 28.867C18.6882 29.0073 18.6882 29.0288 18.8441 29.1121C19.1499 29.2753 19.6906 29.3756 20.2134 29.4726C20.9115 29.6021 21.6333 29.736 22.2588 30.0698C23.1721 30.5573 23.6549 31.3571 23.6549 32.3827C23.6549 33.4084 23.0384 34.305 21.9637 34.8424C21.7099 34.9694 21.4438 35.0692 21.1716 35.1448V35.4687C21.1716 36.1159 20.6469 36.6405 19.9997 36.6405C19.3525 36.6405 18.8278 36.1159 18.8278 35.4687V35.1816C18.34 35.0588 17.8851 34.8523 17.4997 34.5632C16.982 34.1749 16.877 33.4404 17.2653 32.9226C17.6537 32.4049 18.3882 32.2998 18.9059 32.6882C19.3747 33.0398 20.2762 33.0659 20.9155 32.7462C21.1725 32.6177 21.3112 32.463 21.3112 32.3827C21.3112 32.2425 21.3112 32.2209 21.1552 32.1377C20.8495 31.9745 20.3088 31.8741 19.7859 31.7772C19.0879 31.6477 18.3661 31.5138 17.7406 31.1799C16.8273 30.6924 16.3445 29.8927 16.3445 28.8671C16.3445 27.8404 16.9602 26.9437 18.0337 26.407C18.2881 26.2797 18.5548 26.179 18.8278 26.1033V25.7811C18.8278 25.1339 19.3525 24.6092 19.9997 24.6092C20.6469 24.6092 21.1716 25.1339 21.1716 25.7811V26.068C21.6594 26.191 22.1143 26.3976 22.4997 26.6866Z" fill="#3F3F3F"/>
</g>
<defs>
<clipPath id="clip0_3227_2480">
<rect width="40" height="40" fill="white"/>
</clipPath>
</defs>
</svg>
