<svg width="40" height="40" viewBox="0 0 40 40" fill="none" xmlns="http://www.w3.org/2000/svg">
<path d="M22.5134 35.9051C21.2644 33.7845 20.5943 31.3668 20.5756 28.9135L20.5491 25.426C20.5377 23.9124 21.4793 22.5698 22.8923 22.0852C23.5906 21.8456 24.1955 21.4091 24.6415 20.8229C25.2918 19.9679 26.3352 19.4526 27.4324 19.4445L32.0788 19.4102C32.0788 19.4093 32.0789 19.4084 32.0789 19.4075V1.95312C32.0789 0.876172 31.2027 0 30.1258 0H3.125C2.04805 0 1.17188 0.876172 1.17188 1.95312V38.0467C1.17188 39.1237 2.04805 39.9998 3.125 39.9998L26.16 39.9999C24.6917 38.8851 23.4489 37.4933 22.5134 35.9051ZM16.8954 27.6136H7.85016C7.20297 27.6136 6.67828 27.0889 6.67828 26.4417C6.67828 25.7945 7.20297 25.2698 7.85016 25.2698H16.8954C17.5426 25.2698 18.0673 25.7945 18.0673 26.4417C18.0673 27.0889 17.5427 27.6136 16.8954 27.6136ZM18.0673 31.1295C18.0673 31.7767 17.5426 32.3014 16.8954 32.3014H7.85016C7.20297 32.3014 6.67828 31.7767 6.67828 31.1295C6.67828 30.4823 7.20297 29.9577 7.85016 29.9577H16.8954C17.5427 29.9577 18.0673 30.4823 18.0673 31.1295ZM16.8954 23.7071H7.85016C7.20297 23.7071 6.67828 23.1824 6.67828 22.5352C6.67828 21.888 7.20297 21.3634 7.85016 21.3634H16.8954C17.5426 21.3634 18.0673 21.888 18.0673 22.5352C18.0673 23.1824 17.5427 23.7071 16.8954 23.7071ZM16.8954 19.0511H7.85016C7.20297 19.0511 6.67828 18.5264 6.67828 17.8792C6.67828 17.232 7.20297 16.7073 7.85016 16.7073H16.8954C17.5426 16.7073 18.0673 17.232 18.0673 17.8792C18.0673 18.5264 17.5427 19.0511 16.8954 19.0511ZM16.8954 14.3633H7.85016C7.20297 14.3633 6.67828 13.8386 6.67828 13.1914C6.67828 12.5442 7.20297 12.0195 7.85016 12.0195H16.8954C17.5426 12.0195 18.0673 12.5442 18.0673 13.1914C18.0673 13.8386 17.5427 14.3633 16.8954 14.3633ZM25.3266 9.67555H7.85016C7.20297 9.67555 6.67828 9.15086 6.67828 8.50367C6.67828 7.85648 7.20297 7.3318 7.85016 7.3318H25.3266C25.9738 7.3318 26.4985 7.85648 26.4985 8.50367C26.4985 9.15086 25.9739 9.67555 25.3266 9.67555Z" fill="#3F3F3F"/>
<path d="M33.0336 38.9559C36.6389 36.8218 38.8589 32.922 38.8275 28.7785L38.801 25.2905C38.7971 24.7862 38.4853 24.3465 38.0251 24.1963C36.8798 23.8225 35.8819 23.1247 35.1393 22.1783C34.9228 21.9023 34.5716 21.7383 34.1985 21.7383C34.1953 21.7383 34.1923 21.7383 34.1891 21.7383L27.4493 21.788C27.073 21.7909 26.7206 21.9605 26.5066 22.2417C25.7786 23.1988 24.7917 23.9113 23.6525 24.302C23.1942 24.4592 22.8888 24.9037 22.8926 25.4081L22.9191 28.8956C22.9504 33.0393 25.2296 36.9059 28.867 38.9867L30.3676 39.8452C30.7329 40.0541 31.1845 40.0507 31.5465 39.8363L33.0336 38.9559ZM27.3168 29.5503C27.8186 29.1417 28.5568 29.2173 28.9654 29.7192L30.1303 31.1502L33.4529 27.6173C33.8964 27.1459 34.6378 27.1231 35.1094 27.5666C35.5809 28.0099 35.6036 28.7516 35.1602 29.223L30.9203 33.7312C30.6985 33.9671 30.3893 34.1002 30.0668 34.1002C30.0528 34.1002 30.0389 34.1 30.0248 34.0995C29.6872 34.0874 29.3712 33.9302 29.1578 33.6682L27.1477 31.1991C26.7392 30.697 26.8148 29.9589 27.3168 29.5503Z" fill="#3F3F3F"/>
</svg>
