<svg width="200" height="121" viewBox="0 0 200 121" fill="none" xmlns="http://www.w3.org/2000/svg">
<g clip-path="url(#clip0_3978_707)">
<path d="M84.9862 41.795V57.845C84.9862 60.0915 83.1754 61.9056 80.933 61.9056H54.2391V116.219C54.2391 118.862 52.1046 121 49.4664 121H35.5199C32.8816 121 30.7471 118.862 30.7471 116.219V61.9056H4.05324C1.81077 61.9056 0 60.0915 0 57.845V41.795C0 39.5485 1.81077 37.7344 4.05324 37.7344H30.7471V4.78137C30.7471 2.1384 32.8816 0 35.5199 0H49.4664C52.1046 0 54.2391 2.1384 54.2391 4.78137V37.7344H80.933C83.1754 37.7344 84.9862 39.5485 84.9862 41.795Z" fill="#780001"/>
<path d="M84.9862 48.8836V50.6856H52.3444L49.3944 55.9956C49.2025 56.3439 48.8188 56.5241 48.4231 56.4401C48.0393 56.368 47.7515 56.0436 47.7156 55.6472L45.4851 32.7014L42.0194 75.4935C41.9835 75.95 41.6117 76.2984 41.156 76.3224H41.132C40.6883 76.3224 40.3046 75.998 40.2326 75.5535L35.5079 45.3155L34.1048 50.0369C33.9849 50.4213 33.6371 50.6856 33.2414 50.6856H0V48.8836H32.5699L34.9203 40.9907C35.0402 40.5822 35.4239 40.3179 35.8436 40.342C36.2633 40.378 36.5991 40.6904 36.6711 41.1108L40.8442 67.7808L44.5017 22.4899C44.5497 22.0334 44.9334 21.673 45.4011 21.673C45.8808 21.6489 46.2526 22.0214 46.3005 22.4779L49.2265 52.5957L51.0373 49.3401C51.1932 49.0517 51.493 48.8836 51.8168 48.8836H84.9862Z" fill="white"/>
<path d="M113.167 54.4345C112.616 56.4768 111.573 59.4201 110.937 60.4652C109.786 60.6935 106.812 61.4383 103.874 61.4383C94.5082 61.4383 90.1191 55.1072 90.1191 49.0404C90.1191 41.2196 96.1031 36.0898 104.797 36.0898C107.915 36.0898 110.553 36.7626 111.74 36.9788C111.968 38.7689 112.292 41.1836 112.556 43.1177L111.069 43.4541C110.361 40.8832 109.402 39.3215 107.579 38.5046C106.572 38.0601 105.241 37.7958 103.682 37.7958C97.3622 37.7958 94.3163 42.5651 94.3163 48.2595C94.3163 55.2994 98.4055 59.6483 104.126 59.6483C107.987 59.6483 109.738 57.8223 111.704 53.9179L113.155 54.4345H113.167Z" fill="#780001"/>
<path d="M129.261 61.2808C128.709 61.2808 127.918 60.9444 127.51 60.572C126.994 60.0554 126.731 59.4547 126.539 58.818C124.944 59.9352 123.049 61.2687 121.706 61.2687C119.032 61.2687 116.945 59.0342 116.945 56.3913C116.945 54.5292 117.989 53.1837 120.183 52.4869C122.677 51.67 125.687 50.6608 126.395 50.0722V49.3634C126.395 46.7564 124.98 45.459 123.121 45.459C122.306 45.459 121.67 45.7954 121.262 46.2399C120.783 46.7564 120.591 47.5854 120.219 48.6546C119.991 49.2913 119.62 49.5796 118.996 49.5796C118.252 49.5796 117.209 48.7627 117.209 47.8256C117.209 47.1889 117.725 46.7444 118.468 46.1918C119.548 45.483 121.958 44.0654 124.188 43.5488C125.376 43.5488 126.647 43.9573 127.57 44.6661C128.985 45.7833 129.501 47.273 129.501 49.0991V56.2471C129.501 58.0011 130.136 58.5177 130.844 58.5177C131.252 58.5177 131.815 58.2894 132.295 58.0732L132.739 59.3706L129.249 61.2687L129.261 61.2808ZM126.395 51.6339C125.507 52.0784 123.721 52.7872 122.641 53.2317C121.418 53.7843 120.447 54.4931 120.447 55.9468C120.447 57.917 121.97 58.7339 123.121 58.7339C124.164 58.7339 125.352 58.2534 126.395 57.3523V51.6219V51.6339Z" fill="#780001"/>
<path d="M143.819 60.8358H134.717V59.4903C137.211 59.262 137.391 59.0818 137.391 56.7031V48.9905C137.391 46.6118 137.247 46.4556 135.017 46.2033V44.978C137.019 44.6416 138.806 44.1971 140.629 43.4883V47.6209C142.116 45.3864 143.783 43.5604 145.569 43.5604C147.02 43.5604 147.908 44.4974 147.908 45.4585C147.908 46.5037 147.236 47.3566 146.493 47.729C146.085 47.9573 145.785 47.9092 145.485 47.657C144.886 47.1404 144.406 46.768 143.699 46.768C142.847 46.768 141.36 48.0654 140.617 50.1197V56.6671C140.617 59.0818 140.761 59.3101 143.819 59.5023V60.8478V60.8358Z" fill="#780001"/>
<path d="M150.174 60.8367V59.4912C152.62 59.2629 152.884 59.0827 152.884 56.5118V49.0274C152.884 46.7208 152.812 46.5286 150.438 46.2043V45.0149C152.668 44.6425 154.563 44.162 156.122 43.5613V56.5239C156.122 59.0947 156.386 59.2749 158.868 59.5032V60.8487H150.174V60.8367ZM154.263 40.4017C153.112 40.4017 152.069 39.3926 152.069 38.2393C152.069 36.9779 153.112 35.9688 154.299 35.9688C155.486 35.9688 156.422 36.9779 156.422 38.2393C156.422 39.3926 155.498 40.4017 154.263 40.4017Z" fill="#780001"/>
<path d="M172.54 60.8361V59.4906C174.698 59.2623 174.914 58.9379 174.914 56.6193V50.2522C174.914 47.6092 173.799 46.0835 171.46 46.0835C169.937 46.0835 168.522 46.8644 167.227 48.0177V56.6914C167.227 59.2263 167.455 59.2623 169.758 59.4785V60.8241H161.279V59.4785C163.882 59.1782 164.025 59.034 164.025 56.6914V49.0628C164.025 46.6121 163.726 46.4559 161.651 46.1916V44.9302C163.738 44.6299 165.632 44.1493 167.227 43.4766V46.4559C167.971 45.9033 168.858 45.3026 169.794 44.738C170.873 44.0652 171.916 43.5486 173.031 43.5486C176.077 43.5486 178.128 45.8192 178.128 49.5073V56.6914C178.128 59.0701 178.356 59.2263 180.694 59.4785V60.8241H172.552L172.54 60.8361Z" fill="#780001"/>
<path d="M190.264 55.3587C189.52 55.3587 188.813 55.2506 188.105 55.0584C187.326 55.6951 187.098 56.2837 187.098 56.7282C187.098 57.3289 187.734 58.1098 189.436 58.1098C190.959 58.1098 192.59 58.0377 193.861 58.0377C196.464 58.0377 199.582 58.9267 199.582 62.5788C199.582 66.6754 194.857 70.0272 189.7 70.0272C185.311 70.0272 182.793 67.4923 182.793 65.2939C182.793 64.3208 183.165 63.6961 183.836 63.0594C184.652 62.2785 185.959 61.3054 186.702 60.7888C185.323 60.3803 184.436 59.6355 183.908 58.8546C183.536 58.254 183.429 57.5091 183.429 57.1487C184.724 56.548 186.103 55.3587 186.738 54.5418C184.952 53.6528 183.656 52.043 183.656 49.7364C183.656 45.4956 187.638 43.5254 190.648 43.5254C191.943 43.5254 193.322 43.8618 194.509 44.4504C196.44 44.4504 198.634 44.1501 199.785 43.9338L200.013 44.2702C199.713 44.8709 198.97 46.0963 198.418 46.4327C198.191 46.4327 196.368 46.2404 196.152 46.2404C196.787 47.0213 197.231 48.1025 197.231 49.448C197.231 53.3885 193.849 55.3707 190.288 55.3707L190.264 55.3587ZM191.307 60.9089C189.221 60.9089 188.633 61.0891 187.997 61.5456C186.582 62.4346 185.959 63.5159 185.959 64.525C185.959 66.4592 187.961 67.9849 191.091 67.9849C194.617 67.9849 196.704 66.1949 196.704 63.8883C196.704 62.6989 196.104 61.7979 195.109 61.3895C194.101 60.981 192.914 60.9089 191.319 60.9089H191.307ZM190.3 44.979C188.669 44.979 187.062 46.4687 187.062 49.3039C187.062 52.1391 188.585 53.881 190.588 53.881C192.338 53.881 193.79 52.5355 193.79 49.6042C193.79 46.8892 192.374 44.991 190.3 44.991V44.979Z" fill="#780001"/>
<path d="M73.8222 72.0084C76.5683 72.0084 78.7988 72.4889 80.4057 73.6422C81.8927 74.7235 83.008 76.5135 83.008 79.0003C83.008 84.142 78.8108 86.3766 75.0933 86.6649C74.4937 86.7009 73.8342 86.6649 73.4265 86.6649L70.5964 85.9561V91.206C70.5964 94.4136 70.8242 94.5217 74.4578 94.786V96.2036H63.5332V94.786C66.9509 94.5217 67.0228 94.2694 67.0228 91.206V77.018C67.0228 73.6663 66.5432 73.5942 63.5332 73.402V71.9844H73.8222V72.0084ZM70.5844 84.3222C71.0281 84.5505 72.1074 84.8388 73.4505 84.8388C76.1606 84.8388 79.0986 83.5414 79.0986 79.1444C79.0986 75.24 76.4604 73.5581 73.2586 73.5581C71.9155 73.5581 71.256 73.7504 70.9921 74.0387C70.6923 74.339 70.5844 74.6754 70.5844 75.5644V84.3102V84.3222Z" fill="#780001"/>
<path d="M97.9738 96.6477C97.4222 96.6477 96.6307 96.3113 96.223 95.9389C95.7074 95.4223 95.4435 94.8216 95.2517 94.1849C93.6568 95.3021 91.7621 96.6477 90.419 96.6477C87.7448 96.6477 85.6582 94.4131 85.6582 91.7702C85.6582 89.9081 86.7015 88.5626 88.896 87.8658C91.3903 87.0489 94.4003 86.0397 95.1078 85.4511V84.7423C95.1078 82.1353 93.6927 80.8379 91.834 80.8379C91.0186 80.8379 90.383 81.1743 89.9753 81.6188C89.4956 82.1353 89.3037 82.9643 88.932 84.0335C88.7041 84.6702 88.3324 84.9585 87.7088 84.9585C86.9653 84.9585 85.922 84.1416 85.922 83.2045C85.922 82.5678 86.4377 82.1233 87.1812 81.5707C88.2604 80.8619 90.6708 79.4443 92.9013 78.9277C94.0885 78.9277 95.3596 79.3362 96.283 80.045C97.698 81.1622 98.2137 82.6519 98.2137 84.478V91.626C98.2137 93.38 98.8492 93.8966 99.5567 93.8966C99.9645 93.8966 100.528 93.6683 101.008 93.4521L101.451 94.7495L97.9618 96.6477H97.9738ZM95.1198 87.0128C94.2324 87.4573 92.4456 88.1661 91.3663 88.6106C90.1432 89.1632 89.1718 89.872 89.1718 91.3257C89.1718 93.2959 90.6948 94.1128 91.846 94.1128C92.8893 94.1128 94.0765 93.6323 95.1198 92.7313V87.0008V87.0128Z" fill="#780001"/>
<path d="M112.543 96.203H103.441V94.8575C105.936 94.6292 106.116 94.449 106.116 92.0703V84.3577C106.116 81.979 105.972 81.8228 103.741 81.5705V80.3451C105.744 80.0088 107.531 79.5643 109.353 78.8555V82.9881C110.84 80.7536 112.507 78.9275 114.294 78.9275C115.745 78.9275 116.632 79.8526 116.632 80.8257C116.632 81.8709 115.961 82.7238 115.217 83.0962C114.81 83.3245 114.51 83.2885 114.21 83.0242C113.61 82.5076 113.131 82.1352 112.423 82.1352C111.572 82.1352 110.085 83.4326 109.341 85.4869V92.0463C109.341 94.461 109.485 94.6893 112.543 94.8695V96.215V96.203Z" fill="#780001"/>
<path d="M127.294 96.0955C126.551 96.4679 125.807 96.6481 125.435 96.6481C122.977 96.6481 121.538 95.1945 121.538 92.1431V81.1988H118.864L118.672 80.6822L119.751 79.3847H121.538V76.033C121.838 75.7326 123.984 73.9426 124.284 73.6543L124.92 73.7264C124.848 75.2881 124.776 78.0392 124.776 79.3847H129.129C129.536 79.7932 129.429 80.8744 128.865 81.2108H124.776V90.7375C124.776 93.6808 125.999 94.1974 126.97 94.1974C127.858 94.1974 128.829 93.7889 129.345 93.5246L129.752 94.7861L127.294 96.0835V96.0955Z" fill="#780001"/>
<path d="M142.86 96.2033V94.8578C145.018 94.6295 145.234 94.3051 145.234 91.9865V85.6194C145.234 82.9764 144.119 81.4507 141.781 81.4507C140.258 81.4507 138.843 82.2316 137.548 83.3849V92.0586C137.548 94.5935 137.775 94.6295 140.078 94.8457V96.1913H131.6V94.8457C134.202 94.5454 134.346 94.4012 134.346 92.0586V84.43C134.346 81.9673 134.046 81.8231 131.971 81.5588V80.2974C134.058 79.997 135.953 79.5165 137.548 78.8438V81.8231C138.291 81.2705 139.178 80.6698 140.114 80.1172C141.193 79.4444 142.236 78.9278 143.352 78.9278C146.398 78.9278 148.448 81.1984 148.448 84.8866V92.0706C148.448 94.4493 148.676 94.6055 151.014 94.8578V96.2033H142.872H142.86Z" fill="#780001"/>
<path d="M168.161 93.0073C165.559 96.0226 162.777 96.6594 161.434 96.6594C156.745 96.6594 153.783 92.8631 153.783 88.2019C153.783 85.631 154.755 83.3604 156.242 81.7266C157.908 79.8645 159.959 78.9395 162.118 78.9395C165.727 78.9395 168.317 81.9548 168.317 85.3426C168.281 86.1596 168.209 86.532 167.538 86.6882C166.123 86.9164 161.482 87.1687 157.057 87.3249C157.129 91.902 160.067 93.8362 162.705 93.8362C164.372 93.8362 166.015 93.1274 167.43 91.902L168.173 93.0193L168.161 93.0073ZM161.254 80.6093C159.395 80.6093 157.645 82.3633 157.237 85.4147C159.275 85.4147 161.59 85.4147 163.82 85.3066C164.6 85.3066 164.792 85.1144 164.792 84.5257C164.828 82.5916 163.413 80.6213 161.266 80.6213L161.254 80.6093Z" fill="#780001"/>
<path d="M180.239 96.203H171.137V94.8575C173.631 94.6292 173.811 94.449 173.811 92.0703V84.3577C173.811 81.979 173.667 81.8228 171.437 81.5705V80.3451C173.439 80.0088 175.226 79.5643 177.049 78.8555V82.9881C178.536 80.7536 180.203 78.9275 181.989 78.9275C183.44 78.9275 184.328 79.8526 184.328 80.8257C184.328 81.8709 183.656 82.7238 182.913 83.0962C182.505 83.3245 182.205 83.2885 181.905 83.0242C181.306 82.5076 180.826 82.1352 180.119 82.1352C179.267 82.1352 177.78 83.4326 177.037 85.4869V92.0463C177.037 94.461 177.181 94.6893 180.239 94.8695V96.215V96.203Z" fill="#780001"/>
<path d="M196.222 84.1416C195.479 81.7629 194.327 80.4535 192.277 80.4535C190.862 80.4535 189.747 81.3064 189.747 82.7961C189.747 84.2858 190.826 85.0306 193.2 86.0037C196.474 87.3852 198.249 88.6467 198.249 91.2896C198.249 94.7495 195.011 96.6477 191.713 96.6477C189.747 96.6477 187.888 96.0109 187.072 95.5664C186.809 94.5934 186.401 91.9984 186.293 90.9893L187.708 90.689C188.523 93.368 190.01 95.0859 192.385 95.0859C193.944 95.0859 195.131 94.1488 195.131 92.5871C195.131 91.0253 194.088 90.1243 191.977 89.1993C189.111 88.0099 186.881 86.7365 186.881 83.9133C186.881 81.0902 189.147 78.9277 193.008 78.9277C194.675 78.9277 196.09 79.3002 196.87 79.4443C197.098 80.6337 197.421 82.9763 197.577 83.8052L196.198 84.1416H196.222Z" fill="#780001"/>
<path d="M63.4609 120.376V119.463C65.5115 119.319 65.7034 119.223 65.7034 117.169V108.038C65.7034 105.948 65.5115 105.864 63.4609 105.72V104.807H70.2723V105.72C68.2217 105.888 68.0058 105.96 68.0058 108.038V117.169C68.0058 119.223 68.2217 119.319 70.2723 119.463V120.376H63.4609Z" fill="#780001"/>
<path d="M79.11 120.376V119.511C80.501 119.367 80.6449 119.15 80.6449 117.661V113.564C80.6449 111.858 79.9254 110.885 78.4265 110.885C77.4431 110.885 76.5317 111.39 75.7043 112.134V117.721C75.7043 119.355 75.8482 119.379 77.3352 119.523V120.388H71.8789V119.523C73.5578 119.33 73.6537 119.234 73.6537 117.721V112.807C73.6537 111.221 73.4618 111.125 72.1187 110.957V110.14C73.4618 109.948 74.673 109.636 75.7043 109.203V111.113C76.184 110.753 76.7596 110.368 77.3592 110.008C78.0547 109.576 78.7263 109.239 79.4458 109.239C81.4004 109.239 82.7195 110.705 82.7195 113.071V117.697C82.7195 119.234 82.8634 119.331 84.3744 119.499V120.364H79.134L79.11 120.376Z" fill="#780001"/>
<path d="M91.019 120.304C90.5394 120.544 90.0597 120.664 89.8198 120.664C88.2369 120.664 87.3135 119.727 87.3135 117.769V110.729H85.5867L85.4668 110.392L86.1623 109.551H87.3135V107.401C87.5054 107.209 88.8965 106.055 89.0883 105.863L89.4961 105.911C89.4481 106.92 89.4001 108.686 89.4001 109.551H92.1942C92.458 109.816 92.3861 110.512 92.0263 110.729H89.4001V116.868C89.4001 118.766 90.1916 119.09 90.8152 119.09C91.3908 119.09 92.0144 118.826 92.3501 118.658L92.6139 119.475L91.031 120.316L91.019 120.304Z" fill="#780001"/>
<path d="M102.807 118.308C101.128 120.255 99.3409 120.651 98.4775 120.651C95.4675 120.651 93.5488 118.212 93.5488 115.209C93.5488 113.551 94.1724 112.097 95.1318 111.04C96.211 109.839 97.5301 109.238 98.9092 109.238C101.224 109.238 102.902 111.184 102.902 113.359C102.878 113.888 102.831 114.128 102.399 114.224C101.487 114.368 98.5015 114.536 95.6594 114.632C95.7074 117.576 97.6021 118.825 99.2929 118.825C100.372 118.825 101.415 118.369 102.327 117.576L102.807 118.296V118.308ZM98.3575 110.332C97.1584 110.332 96.0431 111.461 95.7793 113.419C97.0984 113.419 98.5734 113.419 100.012 113.347C100.516 113.347 100.636 113.227 100.636 112.842C100.66 111.593 99.7486 110.332 98.3695 110.332H98.3575Z" fill="#780001"/>
<path d="M110.577 120.376H104.713V119.511C106.32 119.367 106.44 119.247 106.44 117.709V112.747C106.44 111.21 106.344 111.114 104.905 110.945V110.152C106.2 109.936 107.339 109.648 108.514 109.191V111.846C109.474 110.405 110.553 109.239 111.692 109.239C112.628 109.239 113.203 109.84 113.203 110.465C113.203 111.138 112.771 111.69 112.292 111.93C112.028 112.075 111.836 112.051 111.644 111.882C111.26 111.546 110.949 111.306 110.493 111.306C109.941 111.306 108.982 112.147 108.502 113.456V117.673C108.502 119.235 108.598 119.379 110.553 119.499V120.364L110.577 120.376Z" fill="#780001"/>
<path d="M121.657 120.376V119.511C123.048 119.367 123.192 119.15 123.192 117.661V113.564C123.192 111.858 122.472 110.885 120.973 110.885C119.99 110.885 119.079 111.39 118.251 112.134V117.721C118.251 119.355 118.395 119.379 119.882 119.523V120.388H114.426V119.523C116.105 119.33 116.201 119.234 116.201 117.721V112.807C116.201 111.221 116.009 111.125 114.666 110.957V110.14C116.009 109.948 117.22 109.636 118.251 109.203V111.113C118.731 110.753 119.306 110.368 119.906 110.008C120.602 109.576 121.273 109.239 121.993 109.239C123.947 109.239 125.266 110.705 125.266 113.071V117.697C125.266 119.234 125.41 119.331 126.921 119.499V120.364H121.681L121.657 120.376Z" fill="#780001"/>
<path d="M136.551 120.664C136.192 120.664 135.688 120.448 135.424 120.208C135.088 119.872 134.92 119.487 134.801 119.079C133.769 119.8 132.546 120.664 131.695 120.664C129.968 120.664 128.637 119.223 128.637 117.529C128.637 116.328 129.308 115.475 130.711 115.018C132.318 114.49 134.249 113.841 134.705 113.456V113C134.705 111.318 133.793 110.489 132.606 110.489C132.078 110.489 131.671 110.705 131.407 110.994C131.095 111.33 130.975 111.859 130.735 112.555C130.591 112.964 130.352 113.156 129.944 113.156C129.464 113.156 128.793 112.627 128.793 112.027C128.793 111.618 129.128 111.33 129.608 110.97C130.304 110.513 131.863 109.6 133.29 109.264C134.057 109.264 134.872 109.528 135.46 109.984C136.371 110.705 136.707 111.666 136.707 112.832V117.433C136.707 118.562 137.115 118.899 137.571 118.899C137.834 118.899 138.194 118.754 138.506 118.61L138.794 119.451L136.539 120.676L136.551 120.664ZM134.717 114.454C134.141 114.742 132.99 115.198 132.306 115.487C131.515 115.847 130.891 116.304 130.891 117.241C130.891 118.514 131.875 119.043 132.618 119.043C133.29 119.043 134.057 118.73 134.717 118.154V114.466V114.454Z" fill="#780001"/>
<path d="M145.017 120.304C144.537 120.544 144.058 120.664 143.818 120.664C142.235 120.664 141.312 119.727 141.312 117.769V110.729H139.585L139.465 110.392L140.16 109.551H141.312V107.401C141.503 107.209 142.895 106.055 143.086 105.863L143.494 105.911C143.446 106.92 143.398 108.686 143.398 109.551H146.192C146.456 109.816 146.384 110.512 146.024 110.729H143.398V116.868C143.398 118.766 144.19 119.09 144.813 119.09C145.389 119.09 146.012 118.826 146.348 118.658L146.612 119.475L145.029 120.316L145.017 120.304Z" fill="#780001"/>
<path d="M147.859 120.375V119.51C149.442 119.366 149.61 119.246 149.61 117.588V112.771C149.61 111.281 149.562 111.161 148.027 110.945V110.176C149.466 109.936 150.677 109.623 151.685 109.239V117.576C151.685 119.234 151.853 119.354 153.46 119.498V120.363H147.859V120.375ZM150.498 107.221C149.754 107.221 149.083 106.572 149.083 105.827C149.083 105.01 149.754 104.361 150.522 104.361C151.289 104.361 151.889 105.01 151.889 105.827C151.889 106.572 151.289 107.221 150.498 107.221Z" fill="#780001"/>
<path d="M160.751 109.252C163.953 109.252 166.207 111.703 166.207 114.766C166.207 118.815 163.149 120.665 160.703 120.665C157.238 120.665 155.127 117.842 155.127 115.103C155.127 111.39 158.041 109.252 160.751 109.252ZM160.427 110.285C158.988 110.285 157.561 111.583 157.561 114.454C157.561 117.565 159.024 119.632 161.003 119.632C162.442 119.632 163.797 118.502 163.797 115.343C163.797 112.375 162.526 110.285 160.427 110.285Z" fill="#780001"/>
<path d="M175.321 120.376V119.511C176.712 119.367 176.856 119.15 176.856 117.661V113.564C176.856 111.858 176.136 110.885 174.637 110.885C173.654 110.885 172.743 111.39 171.915 112.134V117.721C171.915 119.355 172.059 119.379 173.546 119.523V120.388H168.09V119.523C169.769 119.33 169.865 119.234 169.865 117.721V112.807C169.865 111.221 169.673 111.125 168.33 110.957V110.14C169.673 109.948 170.884 109.636 171.915 109.203V111.113C172.395 110.753 172.971 110.368 173.57 110.008C174.266 109.576 174.937 109.239 175.657 109.239C177.611 109.239 178.93 110.705 178.93 113.071V117.697C178.93 119.234 179.074 119.331 180.585 119.499V120.364H175.345L175.321 120.376Z" fill="#780001"/>
<path d="M190.227 120.664C189.867 120.664 189.364 120.448 189.1 120.208C188.764 119.872 188.596 119.487 188.476 119.079C187.445 119.8 186.222 120.664 185.37 120.664C183.644 120.664 182.312 119.223 182.312 117.529C182.312 116.328 182.984 115.475 184.387 115.018C185.994 114.49 187.925 113.841 188.38 113.456V113C188.38 111.318 187.469 110.489 186.282 110.489C185.754 110.489 185.346 110.705 185.083 110.994C184.771 111.33 184.651 111.859 184.411 112.555C184.267 112.964 184.027 113.156 183.62 113.156C183.14 113.156 182.468 112.627 182.468 112.027C182.468 111.618 182.804 111.33 183.284 110.97C183.979 110.513 185.538 109.6 186.965 109.264C187.733 109.264 188.548 109.528 189.136 109.984C190.047 110.705 190.383 111.666 190.383 112.832V117.433C190.383 118.562 190.791 118.899 191.246 118.899C191.51 118.899 191.87 118.754 192.182 118.61L192.47 119.451L190.215 120.676L190.227 120.664ZM188.38 114.454C187.805 114.742 186.654 115.198 185.97 115.487C185.179 115.847 184.555 116.304 184.555 117.241C184.555 118.514 185.538 119.043 186.282 119.043C186.953 119.043 187.721 118.73 188.38 118.154V114.466V114.454Z" fill="#780001"/>
<path d="M193.357 120.376V119.511C194.964 119.367 195.18 119.246 195.18 117.685V106.644C195.18 105.131 195.06 105.034 193.429 104.89V104.049C194.82 103.929 196.415 103.521 197.231 103.232V117.685C197.231 119.246 197.447 119.367 199.102 119.511V120.376H193.357Z" fill="#780001"/>
</g>
<defs>
<clipPath id="clip0_3978_707">
<rect width="200" height="121" fill="white"/>
</clipPath>
</defs>
</svg>
