<svg width="167" height="101" viewBox="0 0 167 101" fill="none" xmlns="http://www.w3.org/2000/svg">
<g clip-path="url(#clip0_3582_16228)">
<path d="M67.579 31.4973H45.2897V3.99106C45.2897 1.78495 43.5073 0 41.3044 0H29.6591C27.4562 0 25.6738 1.78495 25.6738 3.99106V31.4973H3.38446C1.51199 31.4973 0 33.0115 0 34.8867V40.8031H27.1958L29.1584 34.2149C29.2585 33.8739 29.579 33.6533 29.9294 33.6734C30.2799 33.7034 30.5603 33.9642 30.6203 34.3151L34.1049 56.5768L37.159 18.772C37.199 18.391 37.5194 18.0902 37.9099 18.0902C38.3105 18.0701 38.6209 18.381 38.6609 18.762L41.1041 43.9017L42.6161 41.1842C42.7463 40.9435 42.9966 40.8031 43.267 40.8031H70.9635V34.8867C70.9635 33.0115 69.4515 31.4973 67.579 31.4973Z" fill="white"/>
<path d="M41.2443 46.7398C41.0841 47.0306 40.7637 47.181 40.4333 47.1108C40.1128 47.0507 39.8725 46.7799 39.8425 46.449L37.98 27.2959L35.0862 63.0149C35.0562 63.396 34.7458 63.6868 34.3653 63.7068H34.3452C33.9748 63.7068 33.6543 63.4361 33.5943 63.0651L29.6491 37.8251L28.4775 41.766C28.3774 42.0869 28.087 42.3075 27.7566 42.3075H0V48.2841C0 50.1593 1.51199 51.6735 3.38446 51.6735H25.6738V97.0092C25.6738 99.2153 27.4562 101 29.6591 101H41.3044C43.5073 101 45.2897 99.2153 45.2897 97.0092V51.6735H67.579C69.4515 51.6735 70.9635 50.1593 70.9635 48.2841V42.3075H43.7076L41.2443 46.7398Z" fill="white"/>
<path d="M94.4944 45.4365C94.0338 47.1412 93.1626 49.598 92.6319 50.4704C91.6707 50.661 89.1874 51.2827 86.7342 51.2827C78.9139 51.2827 75.249 45.998 75.249 40.934C75.249 34.4059 80.2456 30.124 87.5052 30.124C90.1086 30.124 92.3115 30.6856 93.3028 30.8661C93.4931 32.3602 93.7634 34.3758 93.9837 35.9903L92.7421 36.2711C92.1513 34.1251 91.3502 32.8215 89.8282 32.1396C88.9871 31.7686 87.8757 31.548 86.5739 31.548C81.297 31.548 78.7536 35.529 78.7536 40.2822C78.7536 46.1585 82.1681 49.7885 86.9444 49.7885C90.1687 49.7885 91.6306 48.2643 93.2728 45.0053L94.4844 45.4365H94.4944Z" fill="white"/>
<path d="M107.932 51.1516C107.471 51.1516 106.811 50.8708 106.47 50.56C106.039 50.1288 105.819 49.6274 105.659 49.0959C104.327 50.0285 102.745 51.1416 101.624 51.1416C99.3907 51.1416 97.6484 49.2764 97.6484 47.0703C97.6484 45.516 98.5196 44.3929 100.352 43.8113C102.435 43.1294 104.948 42.287 105.539 41.7957V41.204C105.539 39.028 104.357 37.945 102.805 37.945C102.124 37.945 101.594 38.2258 101.253 38.5968C100.853 39.028 100.692 39.7199 100.382 40.6124C100.192 41.1439 99.8814 41.3845 99.3607 41.3845C98.7399 41.3845 97.8687 40.7027 97.8687 39.9205C97.8687 39.389 98.2993 39.018 98.9201 38.5567C99.8213 37.9651 101.834 36.7818 103.696 36.3506C104.688 36.3506 105.749 36.6915 106.52 37.2832C107.702 38.2158 108.132 39.4592 108.132 40.9834V46.95C108.132 48.414 108.663 48.8452 109.254 48.8452C109.594 48.8452 110.065 48.6547 110.465 48.4742L110.836 49.5572L107.922 51.1416L107.932 51.1516ZM105.539 43.0993C104.798 43.4703 103.306 44.062 102.405 44.433C101.383 44.8943 100.572 45.4859 100.572 46.6993C100.572 48.3438 101.844 49.0257 102.805 49.0257C103.676 49.0257 104.668 48.6246 105.539 47.8725V43.0893V43.0993Z" fill="white"/>
<path d="M120.088 50.7809H112.488V49.6578C114.571 49.4673 114.721 49.3169 114.721 47.3314V40.8935C114.721 38.908 114.601 38.7776 112.738 38.5671V37.5442C114.411 37.2634 115.903 36.8924 117.425 36.3008V39.7503C118.666 37.8852 120.058 36.3609 121.55 36.3609C122.762 36.3609 123.503 37.1431 123.503 37.9453C123.503 38.8178 122.942 39.5297 122.321 39.8406C121.981 40.0311 121.73 39.991 121.48 39.7804C120.979 39.3492 120.579 39.0384 119.988 39.0384C119.277 39.0384 118.035 40.1214 117.415 41.8361V47.3013C117.415 49.3169 117.535 49.5074 120.088 49.6678V50.791V50.7809Z" fill="white"/>
<path d="M125.395 50.781V49.6579C127.438 49.4673 127.658 49.3169 127.658 47.171V40.9237C127.658 38.9983 127.598 38.8379 125.615 38.5671V37.5744C127.478 37.2635 129.06 36.8624 130.362 36.361V47.181C130.362 49.3269 130.582 49.4774 132.655 49.6679V50.791H125.395V50.781ZM128.81 33.7237C127.848 33.7237 126.977 32.8814 126.977 31.9187C126.977 30.8658 127.848 30.0234 128.84 30.0234C129.831 30.0234 130.612 30.8658 130.612 31.9187C130.612 32.8814 129.841 33.7237 128.81 33.7237Z" fill="white"/>
<path d="M144.07 50.7812V49.6581C145.872 49.4675 146.052 49.1968 146.052 47.2614V41.9467C146.052 39.7406 145.121 38.467 143.168 38.467C141.897 38.467 140.715 39.1189 139.634 40.0815V47.3216C139.634 49.4375 139.824 49.4675 141.747 49.648V50.7712H134.667V49.648C136.84 49.3973 136.96 49.277 136.96 47.3216V40.9539C136.96 38.9083 136.71 38.7779 134.978 38.5573V37.5044C136.72 37.2537 138.302 36.8526 139.634 36.291V38.7779C140.255 38.3166 140.996 37.8152 141.777 37.3439C142.678 36.7824 143.549 36.3512 144.48 36.3512C147.023 36.3512 148.736 38.2464 148.736 41.325V47.3216C148.736 49.3071 148.926 49.4375 150.879 49.648V50.7712H144.08L144.07 50.7812Z" fill="white"/>
<path d="M158.869 46.2084C158.248 46.2084 157.657 46.1182 157.067 45.9577C156.416 46.4892 156.226 46.9806 156.226 47.3516C156.226 47.853 156.756 48.5048 158.178 48.5048C159.45 48.5048 160.812 48.4446 161.873 48.4446C164.046 48.4446 166.649 49.1867 166.649 52.2351C166.649 55.6546 162.704 58.4524 158.398 58.4524C154.734 58.4524 152.631 56.3365 152.631 54.5014C152.631 53.6892 152.941 53.1677 153.502 52.6363C154.183 51.9845 155.274 51.1722 155.895 50.741C154.744 50.4001 154.003 49.7783 153.562 49.1265C153.252 48.6251 153.162 48.0034 153.162 47.7026C154.243 47.2012 155.395 46.2084 155.925 45.5265C154.433 44.7845 153.352 43.4408 153.352 41.5154C153.352 37.9756 156.676 36.3311 159.19 36.3311C160.271 36.3311 161.422 36.6118 162.414 37.1032C164.026 37.1032 165.858 36.8525 166.82 36.672L167.01 36.9528C166.759 37.4542 166.139 38.477 165.678 38.7578C165.488 38.7578 163.966 38.5973 163.786 38.5973C164.316 39.2491 164.687 40.1516 164.687 41.2748C164.687 44.5639 161.863 46.2185 158.889 46.2185L158.869 46.2084ZM159.74 50.8413C157.998 50.8413 157.507 50.9917 156.977 51.3728C155.795 52.1148 155.274 53.0173 155.274 53.8596C155.274 55.4741 156.947 56.7477 159.56 56.7477C162.504 56.7477 164.246 55.2535 164.246 53.3282C164.246 52.3354 163.746 51.5833 162.914 51.2424C162.073 50.9014 161.082 50.8413 159.75 50.8413H159.74ZM158.899 37.5444C157.537 37.5444 156.196 38.7879 156.196 41.1544C156.196 43.521 157.467 44.975 159.139 44.975C160.601 44.975 161.813 43.8519 161.813 41.4051C161.813 39.1388 160.631 37.5544 158.899 37.5544V37.5444Z" fill="white"/>
<path d="M61.6411 60.107C63.9341 60.107 65.7966 60.5081 67.1384 61.4708C68.38 62.3733 69.3112 63.8674 69.3112 65.9432C69.3112 70.2351 65.8066 72.1002 62.7025 72.3409C62.2019 72.371 61.6511 72.3409 61.3107 72.3409L58.9476 71.7492V76.1314C58.9476 78.8088 59.1378 78.8991 62.1718 79.1197V80.303H53.0498V79.1197C55.9036 78.8991 55.9636 78.6885 55.9636 76.1314V64.2886C55.9636 61.4908 55.5631 61.4306 53.0498 61.2702V60.0869H61.6411V60.107ZM58.9376 70.3855C59.3081 70.576 60.2092 70.8167 61.3307 70.8167C63.5937 70.8167 66.0469 69.7337 66.0469 66.0635C66.0469 62.8044 63.844 61.4006 61.1705 61.4006C60.049 61.4006 59.4983 61.561 59.278 61.8017C59.0277 62.0524 58.9376 62.3331 58.9376 63.0752V70.3754V70.3855Z" fill="white"/>
<path d="M81.8077 80.6738C81.3471 80.6738 80.6862 80.393 80.3458 80.0822C79.9152 79.651 79.6949 79.1496 79.5347 78.6181C78.203 79.5507 76.6209 80.6738 75.4994 80.6738C73.2665 80.6738 71.5242 78.8086 71.5242 76.6025C71.5242 75.0482 72.3953 73.9251 74.2277 73.3435C76.3105 72.6616 78.8238 71.8193 79.4146 71.3279V70.7363C79.4146 68.5602 78.233 67.4772 76.681 67.4772C76.0001 67.4772 75.4694 67.758 75.1289 68.129C74.7284 68.5602 74.5682 69.2522 74.2578 70.1446C74.0675 70.6761 73.7571 70.9168 73.2364 70.9168C72.6156 70.9168 71.7445 70.2349 71.7445 69.4527C71.7445 68.9212 72.175 68.5502 72.7958 68.0889C73.697 67.4973 75.7097 66.314 77.5721 65.8828C78.5634 65.8828 79.6248 66.2238 80.3959 66.8154C81.5774 67.748 82.008 68.9914 82.008 70.5157V76.4822C82.008 77.9463 82.5387 78.3775 83.1295 78.3775C83.4699 78.3775 83.9405 78.1869 84.3411 78.0064L84.7115 79.0894L81.7977 80.6738H81.8077ZM79.4246 72.6315C78.6836 73.0026 77.1916 73.5942 76.2905 73.9652C75.2691 74.4265 74.458 75.0181 74.458 76.2315C74.458 77.8761 75.7297 78.5579 76.691 78.5579C77.5621 78.5579 78.5534 78.1568 79.4246 77.4048V72.6215V72.6315Z" fill="white"/>
<path d="M93.9738 80.3034H86.3738V79.1803C88.4565 78.9897 88.6067 78.8393 88.6067 76.8538V70.416C88.6067 68.4305 88.4866 68.3001 86.6241 68.0895V67.0667C88.2963 66.7859 89.7883 66.4149 91.3103 65.8232V69.2728C92.5519 67.4076 93.9437 65.8834 95.4357 65.8834C96.6473 65.8834 97.3883 66.6555 97.3883 67.4678C97.3883 68.3402 96.8276 69.0522 96.2067 69.3631C95.8663 69.5536 95.616 69.5235 95.3656 69.3029C94.865 68.8717 94.4644 68.5608 93.8737 68.5608C93.1627 68.5608 91.9211 69.6438 91.3003 71.3586V76.8338C91.3003 78.8494 91.4204 79.0399 93.9738 79.1903V80.3134V80.3034Z" fill="white"/>
<path d="M106.29 80.2124C105.669 80.5233 105.048 80.6737 104.738 80.6737C102.685 80.6737 101.484 79.4603 101.484 76.9132V67.7779H99.2508L99.0906 67.3467L99.9918 66.2637H101.484V63.466C101.734 63.2153 103.526 61.7211 103.777 61.4805L104.307 61.5406C104.247 62.8442 104.187 65.1406 104.187 66.2637H107.822C108.163 66.6047 108.072 67.5072 107.602 67.788H104.187V75.74C104.187 78.1968 105.209 78.628 106.02 78.628C106.761 78.628 107.572 78.2871 108.002 78.0664L108.343 79.1194L106.29 80.2024V80.2124Z" fill="white"/>
<path d="M119.287 80.3027V79.1796C121.09 78.989 121.27 78.7183 121.27 76.7829V71.4682C121.27 69.2621 120.339 67.9885 118.386 67.9885C117.114 67.9885 115.933 68.6403 114.851 69.603V76.8431C114.851 78.9589 115.042 78.989 116.964 79.1695V80.2926H109.885V79.1695C112.058 78.9188 112.178 78.7985 112.178 76.8431V70.4754C112.178 68.4197 111.927 68.2994 110.195 68.0788V67.0259C111.937 66.7752 113.52 66.3741 114.851 65.8125V68.2994C115.472 67.8381 116.213 67.3367 116.994 66.8755C117.895 66.3139 118.766 65.8827 119.698 65.8827C122.241 65.8827 123.953 67.778 123.953 70.8565V76.8531C123.953 78.8386 124.144 78.969 126.096 79.1796V80.3027H119.297H119.287Z" fill="white"/>
<path d="M140.415 77.6351C138.242 80.1521 135.919 80.6836 134.798 80.6836C130.882 80.6836 128.409 77.5148 128.409 73.624C128.409 71.4781 129.22 69.5828 130.462 68.219C131.854 66.6647 133.566 65.8926 135.368 65.8926C138.382 65.8926 140.545 68.4096 140.545 71.2374C140.515 71.9193 140.455 72.2302 139.894 72.3605C138.713 72.551 134.838 72.7616 131.143 72.892C131.203 76.7126 133.656 78.3271 135.859 78.3271C137.251 78.3271 138.623 77.7354 139.804 76.7126L140.425 77.6452L140.415 77.6351ZM134.647 67.2864C133.095 67.2864 131.633 68.7505 131.293 71.2976C132.995 71.2976 134.928 71.2976 136.79 71.2073C137.441 71.2073 137.601 71.0469 137.601 70.5555C137.631 68.941 136.45 67.2965 134.657 67.2965L134.647 67.2864Z" fill="white"/>
<path d="M150.498 80.3034H142.898V79.1803C144.981 78.9897 145.131 78.8393 145.131 76.8538V70.416C145.131 68.4305 145.011 68.3001 143.149 68.0895V67.0667C144.821 66.7859 146.313 66.4149 147.835 65.8232V69.2728C149.076 67.4076 150.468 65.8834 151.96 65.8834C153.172 65.8834 153.913 66.6555 153.913 67.4678C153.913 68.3402 153.352 69.0522 152.731 69.3631C152.391 69.5536 152.14 69.5235 151.89 69.3029C151.389 68.8717 150.989 68.5608 150.398 68.5608C149.687 68.5608 148.445 69.6438 147.825 71.3586V76.8338C147.825 78.8494 147.945 79.0399 150.498 79.1903V80.3134V80.3034Z" fill="white"/>
<path d="M163.846 70.2349C163.225 68.2494 162.264 67.1563 160.552 67.1563C159.37 67.1563 158.439 67.8683 158.439 69.1118C158.439 70.3552 159.34 70.9769 161.323 71.7892C164.056 72.9424 165.538 73.9953 165.538 76.2014C165.538 79.0894 162.835 80.6738 160.081 80.6738C158.439 80.6738 156.887 80.1423 156.206 79.7713C155.985 78.9591 155.645 76.7931 155.555 75.9507L156.736 75.7C157.417 77.9362 158.659 79.3702 160.642 79.3702C161.943 79.3702 162.935 78.588 162.935 77.2844C162.935 75.9808 162.063 75.2287 160.301 74.4566C157.908 73.4638 156.046 72.4009 156.046 70.0443C156.046 67.6878 157.938 65.8828 161.162 65.8828C162.554 65.8828 163.736 66.1937 164.387 66.314C164.577 67.3068 164.847 69.2622 164.977 69.9541L163.826 70.2349H163.846Z" fill="white"/>
<path d="M52.9897 100.478V99.7163C54.702 99.596 54.8622 99.5158 54.8622 97.801V90.1799C54.8622 88.4351 54.702 88.3649 52.9897 88.2445V87.4824H58.6772V88.2445C56.965 88.3849 56.7847 88.4451 56.7847 90.1799V97.801C56.7847 99.5158 56.965 99.596 58.6772 99.7163V100.478H52.9897Z" fill="white"/>
<path d="M66.057 100.478V99.7562C67.2185 99.6359 67.3387 99.4554 67.3387 98.2119V94.7924C67.3387 93.3685 66.7379 92.5562 65.4862 92.5562C64.6652 92.5562 63.9042 92.9774 63.2133 93.5991V98.262C63.2133 99.6258 63.3334 99.6459 64.575 99.7662V100.488H60.019V99.7662C61.4209 99.6058 61.501 99.5256 61.501 98.262V94.1607C61.501 92.837 61.3408 92.7568 60.2193 92.6164V91.9345C61.3408 91.7741 62.3521 91.5133 63.2133 91.1523V92.7468C63.6138 92.4459 64.0944 92.125 64.5951 91.8242C65.1758 91.4632 65.7366 91.1824 66.3374 91.1824C67.9695 91.1824 69.071 92.4058 69.071 94.3813V98.242C69.071 99.5256 69.1911 99.6058 70.4528 99.7462V100.468H66.077L66.057 100.478Z" fill="white"/>
<path d="M76.0001 100.419C75.5996 100.619 75.1991 100.719 74.9988 100.719C73.6771 100.719 72.906 99.9373 72.906 98.3028V92.4265H71.4642L71.364 92.1457L71.9448 91.4438H72.906V89.6488C73.0663 89.4883 74.2278 88.5257 74.388 88.3652L74.7284 88.4053C74.6884 89.2477 74.6483 90.7218 74.6483 91.4438H76.9814C77.2017 91.6644 77.1416 92.246 76.8412 92.4265H74.6483V97.5507C74.6483 99.1351 75.3092 99.4058 75.8299 99.4058C76.3105 99.4058 76.8312 99.1852 77.1116 99.0448L77.3319 99.7267L76.0101 100.429L76.0001 100.419Z" fill="white"/>
<path d="M85.843 98.7536C84.4411 100.378 82.9492 100.709 82.2282 100.709C79.7149 100.709 78.1128 98.6734 78.1128 96.1664C78.1128 94.7826 78.6335 93.5692 79.4345 92.6868C80.3357 91.684 81.4372 91.1826 82.5887 91.1826C84.5212 91.1826 85.9231 92.8071 85.9231 94.6222C85.903 95.0634 85.863 95.2639 85.5025 95.3442C84.7415 95.4645 82.2482 95.6049 79.8751 95.6851C79.9152 98.1419 81.4973 99.1848 82.9091 99.1848C83.8103 99.1848 84.6814 98.8037 85.4424 98.1419L85.843 98.7436V98.7536ZM82.1281 92.0951C81.1268 92.0951 80.1955 93.0378 79.9752 94.6723C81.0767 94.6723 82.3083 94.6723 83.5099 94.6121C83.9305 94.6121 84.0306 94.5118 84.0306 94.191C84.0506 93.1481 83.2896 92.0951 82.1381 92.0951H82.1281Z" fill="white"/>
<path d="M92.3315 100.478H87.4351V99.7565C88.7768 99.6361 88.877 99.5359 88.877 98.2523V94.1108C88.877 92.8272 88.7969 92.747 87.5953 92.6066V91.9448C88.6767 91.7643 89.6279 91.5236 90.6092 91.1426V93.3587C91.4103 92.1554 92.3115 91.1827 93.2627 91.1827C94.0438 91.1827 94.5244 91.6841 94.5244 92.2055C94.5244 92.7671 94.1639 93.2284 93.7634 93.4289C93.5431 93.5493 93.3829 93.5292 93.2227 93.3888C92.9023 93.108 92.6419 92.9075 92.2614 92.9075C91.8008 92.9075 90.9998 93.6094 90.5992 94.7025V98.2222C90.5992 99.5258 90.6793 99.6462 92.3115 99.7464V100.468L92.3315 100.478Z" fill="white"/>
<path d="M101.584 100.478V99.7562C102.745 99.6359 102.866 99.4554 102.866 98.2119V94.7924C102.866 93.3685 102.265 92.5562 101.013 92.5562C100.192 92.5562 99.431 92.9774 98.7401 93.5991V98.262C98.7401 99.6258 98.8603 99.6459 100.102 99.7662V100.488H95.5459V99.7662C96.9477 99.6058 97.0279 99.5256 97.0279 98.262V94.1607C97.0279 92.837 96.8676 92.7568 95.7462 92.6164V91.9345C96.8676 91.7741 97.879 91.5133 98.7401 91.1523V92.7468C99.1406 92.4459 99.6213 92.125 100.122 91.8242C100.703 91.4632 101.263 91.1824 101.864 91.1824C103.496 91.1824 104.598 92.4058 104.598 94.3813V98.242C104.598 99.5256 104.718 99.6058 105.98 99.7462V100.468H101.604L101.584 100.478Z" fill="white"/>
<path d="M114.02 100.72C113.72 100.72 113.299 100.539 113.079 100.338C112.798 100.058 112.658 99.7368 112.558 99.3958C111.697 99.9975 110.676 100.72 109.965 100.72C108.523 100.72 107.411 99.5162 107.411 98.1023C107.411 97.0995 107.972 96.3875 109.144 96.0064C110.485 95.5652 112.098 95.0237 112.478 94.7028V94.3218C112.478 92.9179 111.717 92.226 110.726 92.226C110.285 92.226 109.945 92.4065 109.724 92.6471C109.464 92.9279 109.364 93.3691 109.164 93.9507C109.044 94.2917 108.843 94.4521 108.503 94.4521C108.102 94.4521 107.542 94.0109 107.542 93.5095C107.542 93.1686 107.822 92.9279 108.222 92.6271C108.803 92.246 110.105 91.4839 111.296 91.2031C111.937 91.2031 112.618 91.4237 113.109 91.8048C113.87 92.4065 114.15 93.2087 114.15 94.1814V98.022C114.15 98.9646 114.491 99.2454 114.871 99.2454C115.091 99.2454 115.392 99.1251 115.652 99.0048L115.893 99.7067L114.01 100.73L114.02 100.72ZM112.488 95.5351C112.007 95.7758 111.046 96.1569 110.475 96.3975C109.815 96.6984 109.294 97.0794 109.294 97.8616C109.294 98.9245 110.115 99.3658 110.736 99.3658C111.296 99.3658 111.937 99.105 112.488 98.6237V95.5452V95.5351Z" fill="white"/>
<path d="M121.089 100.419C120.689 100.619 120.288 100.719 120.088 100.719C118.766 100.719 117.995 99.9373 117.995 98.3028V92.4265H116.553L116.453 92.1457L117.034 91.4438H117.995V89.6488C118.156 89.4883 119.317 88.5257 119.477 88.3652L119.818 88.4053C119.778 89.2477 119.738 90.7218 119.738 91.4438H122.071C122.291 91.6644 122.231 92.246 121.931 92.4265H119.738V97.5507C119.738 99.1351 120.399 99.4058 120.919 99.4058C121.4 99.4058 121.921 99.1852 122.201 99.0448L122.421 99.7267L121.099 100.429L121.089 100.419Z" fill="white"/>
<path d="M123.463 100.478V99.7564C124.784 99.6361 124.925 99.5358 124.925 98.1519V94.1308C124.925 92.8873 124.885 92.7871 123.603 92.6066V91.9648C124.804 91.7642 125.816 91.5035 126.657 91.1826V98.1419C126.657 99.5257 126.797 99.626 128.139 99.7464V100.468H123.463V100.478ZM125.666 89.4979C125.045 89.4979 124.484 88.9564 124.484 88.3347C124.484 87.6528 125.045 87.1113 125.686 87.1113C126.326 87.1113 126.827 87.6528 126.827 88.3347C126.827 88.9564 126.326 89.4979 125.666 89.4979Z" fill="white"/>
<path d="M134.227 91.1934C136.9 91.1934 138.783 93.239 138.783 95.7961C138.783 99.1755 136.229 100.72 134.187 100.72C131.293 100.72 129.531 98.3632 129.531 96.0769C129.531 92.9783 131.964 91.1934 134.227 91.1934ZM133.956 92.0558C132.755 92.0558 131.563 93.1387 131.563 95.5354C131.563 98.1326 132.785 99.8574 134.437 99.8574C135.639 99.8574 136.77 98.9148 136.77 96.2775C136.77 93.8006 135.709 92.0558 133.956 92.0558Z" fill="white"/>
<path d="M146.393 100.478V99.7562C147.554 99.6359 147.674 99.4554 147.674 98.2119V94.7924C147.674 93.3685 147.074 92.5562 145.822 92.5562C145.001 92.5562 144.24 92.9774 143.549 93.5991V98.262C143.549 99.6258 143.669 99.6459 144.911 99.7662V100.488H140.355V99.7662C141.757 99.6058 141.837 99.5256 141.837 98.262V94.1607C141.837 92.837 141.676 92.7568 140.555 92.6164V91.9345C141.676 91.7741 142.688 91.5133 143.549 91.1523V92.7468C143.949 92.4459 144.43 92.125 144.931 91.8242C145.512 91.4632 146.072 91.1824 146.673 91.1824C148.305 91.1824 149.407 92.4058 149.407 94.3813V98.242C149.407 99.5256 149.527 99.6058 150.788 99.7462V100.468H146.413L146.393 100.478Z" fill="white"/>
<path d="M158.839 100.72C158.539 100.72 158.118 100.539 157.898 100.338C157.618 100.058 157.477 99.7368 157.377 99.3958C156.516 99.9975 155.495 100.72 154.784 100.72C153.342 100.72 152.23 99.5162 152.23 98.1023C152.23 97.0995 152.791 96.3875 153.963 96.0064C155.305 95.5652 156.917 95.0237 157.297 94.7028V94.3218C157.297 92.9179 156.536 92.226 155.545 92.226C155.104 92.226 154.764 92.4065 154.544 92.6471C154.283 92.9279 154.183 93.3691 153.983 93.9507C153.863 94.2917 153.662 94.4521 153.322 94.4521C152.921 94.4521 152.361 94.0109 152.361 93.5095C152.361 93.1686 152.641 92.9279 153.042 92.6271C153.622 92.246 154.924 91.4839 156.116 91.2031C156.756 91.2031 157.437 91.4237 157.928 91.8048C158.689 92.4065 158.969 93.2087 158.969 94.1814V98.022C158.969 98.9646 159.31 99.2454 159.69 99.2454C159.911 99.2454 160.211 99.1251 160.471 99.0048L160.712 99.7067L158.829 100.73L158.839 100.72ZM157.297 95.5351C156.817 95.7758 155.855 96.1569 155.284 96.3975C154.624 96.6984 154.103 97.0794 154.103 97.8616C154.103 98.9245 154.924 99.3658 155.545 99.3658C156.106 99.3658 156.746 99.105 157.297 98.6237V95.5452V95.5351Z" fill="white"/>
<path d="M161.453 100.479V99.7566C162.794 99.6363 162.975 99.536 162.975 98.2324V89.0168C162.975 87.7533 162.875 87.6731 161.513 87.5528V86.8508C162.674 86.7506 164.006 86.4096 164.687 86.1689V98.2324C164.687 99.536 164.867 99.6363 166.249 99.7566V100.479H161.453Z" fill="white"/>
</g>
<defs>
<clipPath id="clip0_3582_16228">
<rect width="167" height="101" fill="white"/>
</clipPath>
</defs>
</svg>
