<svg width="796" height="317" viewBox="0 0 796 317" fill="none" xmlns="http://www.w3.org/2000/svg">
<mask id="path-1-outside-1_3890_3655" maskUnits="userSpaceOnUse" x="-0.332031" y="0" width="797" height="317" fill="black">
<rect fill="white" x="-0.332031" width="797" height="317"/>
<path d="M318.521 173.581L316.289 171.296C309.918 164.805 302.697 157.449 301.962 149.776C301.623 146.225 303.423 143.232 306.344 142.498C309.022 141.825 312.737 143.126 315.783 148.4C316.421 146.327 317.546 144.265 319.151 143.076C321.682 141.2 324.9 140.961 327.168 142.49C328.454 143.357 331.228 146.094 329.281 152.808C327.945 157.415 324.693 163.29 319.159 172.522L318.521 173.581ZM307.658 144.204C307.358 144.204 307.076 144.24 306.813 144.304C304.819 144.804 303.601 146.983 303.852 149.598C304.525 156.623 311.805 164.04 317.656 170.001L318.159 170.515C323.117 162.209 326.236 156.509 327.459 152.294C328.592 148.389 328.095 145.374 326.095 144.026C324.498 142.948 322.168 143.17 320.292 144.563C318.424 145.949 317.331 149.051 317.102 151.346L316.746 154.959L315.289 151.627C312.87 146.097 309.842 144.204 307.658 144.204Z"/>
<path d="M513.726 174.723L511.915 172.119C506.719 164.677 500.832 156.243 501.397 148.553C501.66 144.996 503.939 142.337 506.943 142.089C509.694 141.87 513.144 143.751 515.254 149.448C516.232 147.508 517.689 145.66 519.472 144.746C522.28 143.304 525.498 143.596 527.478 145.471C528.597 146.533 530.877 149.687 527.826 155.99C525.741 160.3 521.37 165.78 514.528 173.784L513.726 174.723ZM507.369 143.935C507.279 143.935 507.188 143.937 507.101 143.946C505.05 144.115 503.482 146.063 503.287 148.687C502.77 155.729 508.705 164.232 513.477 171.066L513.881 171.644C520.164 164.263 524.198 159.152 526.114 155.189C527.888 151.521 527.905 148.467 526.162 146.811C524.769 145.491 522.433 145.321 520.348 146.394C518.271 147.461 516.672 150.34 516.062 152.566L515.102 156.073L514.223 152.547C512.635 146.161 509.604 143.935 507.369 143.935Z"/>
<path d="M119.236 316C117.456 316 115.665 315.881 113.862 315.625C99.9486 313.652 89.1397 304.087 78.6895 294.835C69.0219 286.279 59.0266 277.431 46.6497 274.705C32.3913 271.564 18.1809 276.819 2.4138 283.483L1.66797 281.769C17.7458 274.977 32.2585 269.616 47.065 272.887C59.925 275.722 70.1096 284.734 79.958 293.451C90.6709 302.933 100.79 311.89 114.134 313.782C129.177 315.911 143.71 308.041 156.155 300.496L157.485 299.687C170.292 291.909 183.539 283.87 198.532 283.87H198.54C208.547 283.87 218.09 287.571 227.317 291.148C236.993 294.899 246.977 298.779 257.291 298.19C270.81 297.414 283.98 288.616 291.662 275.23C298.247 263.755 301.31 248.671 300.064 233.848C299.25 224.191 299.31 214.215 299.366 204.569C299.403 198.544 299.44 192.314 299.262 186.25C298.708 173.67 295.205 164.291 291.815 155.217C290.165 150.799 288.602 146.622 287.356 142.095C286.379 138.535 285.13 134.611 283.814 130.457C279.698 117.496 275.813 105.251 278.63 100.697C279.246 99.699 280.147 99.0932 281.305 98.8903C285.653 98.1094 286.856 102.795 287.297 104.551C291.778 122.342 295.719 127.755 296.688 127.755C296.694 127.755 296.702 127.755 296.705 127.755C296.73 127.747 299.428 126.619 297.035 103.776C297.021 103.64 295.939 94.1716 295.196 87.6744L294.51 81.6746C294.027 77.5562 296.086 75.0468 298.341 74.3909C300.366 73.8046 302.338 74.6327 303.254 76.4502C305.047 80.01 306.268 89.603 307.556 99.7574C308.678 108.581 310.2 120.561 311.791 122.156C313.161 119.824 311.842 104.193 311.042 94.7386C310.675 90.4145 310.33 86.3266 310.164 83.2281C310.102 82.1081 310.014 81.0521 309.932 80.0712C309.542 75.3775 309.234 71.6703 313.189 70.2642C314.749 69.7056 316.472 69.8973 317.907 70.7894C319.687 71.8954 320.809 73.8796 321.057 76.3835C322.097 86.7546 322.45 97.6287 322.733 106.366C322.964 113.455 323.202 120.758 323.787 123.223C323.973 122.851 324.219 122.284 324.53 121.425C326.394 116.234 328.541 102.094 330.417 82.6389C330.474 82.0581 330.516 81.7385 330.522 81.7219C331.301 78.7039 333.779 77.4561 335.921 77.5618C337.946 77.6674 340.181 79.0707 340.616 81.9775C342.006 91.2898 340.557 104.37 339.158 117.02C337.842 128.939 336.596 140.197 337.955 146.647C338.548 149.454 339.099 149.782 339.121 149.793C340.02 149.537 342.24 144.61 343.862 141.014C347.509 132.922 352.049 122.848 358.307 120.555C360.397 119.791 363.087 120.344 364.31 121.789C364.878 122.462 365.638 123.912 364.324 126.069C362.335 129.334 359.686 137.44 356.615 146.83C351.326 162.998 344.743 183.121 337.737 189.865C331.454 195.915 330.55 207.64 330.496 218.316C330.437 230.03 334.711 242.249 341.93 251.008C350.911 261.907 364.904 267.482 377.566 265.231C385.987 263.73 394.228 258.653 400.181 251.297C410.925 238.019 410.705 222.835 410.473 206.756C410.414 202.54 410.351 198.18 410.498 193.864C411.08 177.057 411.159 162.982 409.665 148.915L409.461 146.93C408.639 138.755 407.518 127.558 401.178 122.603C393.505 116.606 384.857 97.2591 377.91 81.7163C373.873 72.6847 370.387 64.8841 368.068 61.8328C366.539 59.8208 367.141 58.3035 367.635 57.5754C368.703 56.0164 371.328 55.1911 373.478 55.7413C379.942 57.3892 385.51 66.9516 389.985 74.6327C391.968 78.0397 394.686 82.7056 395.703 82.8612C395.672 82.839 396.161 82.3888 396.446 79.6376C397.127 73.0848 394.711 62.0134 392.152 50.2889C389.44 37.8475 386.632 24.9837 387.038 15.5796C387.165 12.6423 389.245 11.0193 391.248 10.7137C393.344 10.3885 395.963 11.3806 397.056 14.3124C397.062 14.3291 397.135 14.6264 397.243 15.1628C401.141 34.3405 404.758 48.2047 407.165 53.193C407.56 54.0183 407.865 54.5547 408.088 54.9048C408.416 52.3926 407.891 45.1117 407.376 38.0393C406.746 29.3189 405.961 18.4642 405.91 8.04029C405.896 5.5281 406.8 3.43832 408.456 2.15722C409.789 1.12622 411.479 0.759395 413.097 1.15679C417.177 2.15444 417.259 5.86992 417.363 10.5775C417.386 11.564 417.409 12.6228 417.465 13.7455C417.623 16.8468 417.708 20.9458 417.796 25.2838C417.988 34.7712 418.307 50.4585 419.917 52.6372C421.33 50.9031 421.593 38.8201 421.785 29.9274C422.008 19.6953 422.217 10.0328 423.629 6.309C424.353 4.40818 426.243 3.3883 428.299 3.76346C430.61 4.18864 432.921 6.47573 432.87 10.6247C432.865 10.911 432.673 32.5174 432.67 32.8593C432.676 55.8219 435.478 56.6722 435.506 56.6806C436.441 56.6583 439.823 50.9198 442.439 32.6481C442.719 30.6889 443.371 26.0952 447.81 26.4121C448.985 26.4954 449.943 27.0095 450.66 27.9405C453.94 32.1867 451.35 44.7588 448.612 58.0701C447.734 62.333 446.906 66.3625 446.304 70.0002C445.538 74.6272 444.422 78.9401 443.242 83.5032C440.818 92.8683 438.312 102.553 439.077 115.136C440.538 139.105 443.64 163.399 446.637 186.892L447.714 195.343C448.313 200.07 448.519 205.036 448.717 209.838C449.075 218.505 449.448 227.465 452.127 235.496C453.906 240.829 456.746 245.103 460.342 247.851C464.543 251.061 469.894 252.142 474.31 250.666C483.305 247.654 484.2 239.753 485.147 231.383C485.361 229.477 485.587 227.507 485.915 225.653C488.607 210.508 490.791 196.913 492.594 184.091C494.167 171.591 492.289 161.773 490.469 152.274C489.585 147.645 488.746 143.273 488.283 138.607C487.915 134.936 487.348 130.862 486.746 126.552C484.867 113.099 483.093 100.394 486.638 96.3587C487.412 95.475 488.404 95.0248 489.579 95.0137H489.633C494.029 95.0137 494.399 99.774 494.537 101.569C495.973 119.969 498.981 125.905 499.914 125.985C499.939 125.98 502.79 125.304 504.27 102.386C504.287 102.117 505.49 80.388 505.502 80.1851C505.719 76.0389 508.169 73.9018 510.502 73.6212C512.587 73.3822 514.404 74.5077 515.003 76.4502C516.172 80.2546 515.76 89.9115 515.325 100.138C514.946 109.022 514.432 121.089 515.732 122.917C517.477 120.841 518.805 105.204 519.605 95.7473C519.972 91.426 520.32 87.3409 520.676 84.2591C520.803 83.1419 520.896 82.0887 520.978 81.1049C521.385 76.4113 521.704 72.7069 525.843 71.9649C527.473 71.6703 529.142 72.14 530.408 73.2516C531.979 74.6299 532.747 76.7725 532.572 79.2819C531.852 89.678 530.371 100.458 529.182 109.12C528.216 116.151 527.221 123.392 527.388 125.919C527.634 125.582 527.973 125.065 528.419 124.268C531.137 119.446 535.635 105.849 540.759 86.9602C540.909 86.4072 541.002 86.1043 541.008 86.0904C542.291 83.2336 544.966 82.4249 547.034 82.8612C549.014 83.292 550.984 85.0427 550.921 87.9801C550.724 97.3897 547.096 110.053 543.587 122.298C540.282 133.839 537.157 144.741 537.417 151.324C537.527 154.186 538.016 154.6 538.039 154.617C538.968 154.511 541.985 150.015 544.189 146.73C549.147 139.341 555.32 130.145 561.877 128.903C564.058 128.495 566.629 129.473 567.592 131.099C568.042 131.854 568.545 133.408 566.886 135.32C564.375 138.218 560.394 145.783 555.786 154.545C547.85 169.629 537.977 188.401 529.934 193.909C519.192 201.268 518.11 223.188 517.396 237.691C517.285 239.904 517.186 241.929 517.062 243.686C516.076 257.528 517.706 281.827 539.677 289.058C553.84 293.721 569.211 290.078 581.026 286.39C584.162 285.412 587.286 284.359 590.411 283.305C600.709 279.837 611.357 276.25 622.397 275.419C636.61 274.34 650.917 277.853 664.749 281.243C682.414 285.573 699.094 289.661 715.788 285.184C726.969 282.186 736.815 275.458 746.339 268.952C748.669 267.36 750.994 265.77 753.339 264.233C763.493 257.581 778.813 249.005 794.668 251.32L794.388 253.165C779.195 250.936 764.281 259.301 754.39 265.784C752.057 267.315 749.74 268.899 747.418 270.483C737.767 277.078 727.783 283.9 716.285 286.985C699.119 291.59 681.411 287.252 664.288 283.055C650.603 279.704 636.452 276.23 622.541 277.283C611.741 278.098 601.209 281.644 591.024 285.076C587.885 286.134 584.747 287.19 581.597 288.171C569.508 291.945 553.749 295.661 539.073 290.831C515.89 283.203 514.144 257.942 515.167 243.561C515.291 241.815 515.39 239.806 515.497 237.608C516.232 222.738 517.339 200.264 528.846 192.383C536.502 187.139 546.257 168.592 554.097 153.692C558.758 144.829 562.784 137.173 565.437 134.114C566.123 133.322 566.296 132.624 565.948 132.038C565.389 131.096 563.626 130.473 562.23 130.735C556.456 131.827 550.28 141.033 545.768 147.758C541.59 153.981 539.48 156.949 537.477 156.39C535.906 155.956 535.606 153.622 535.519 151.393C535.25 144.518 538.412 133.477 541.76 121.792C545.234 109.656 548.831 97.1118 549.023 87.9384C549.065 85.9292 547.811 84.9371 546.622 84.6787C545.393 84.4036 543.644 84.8176 542.74 86.8407C542.745 86.824 542.712 86.9769 542.587 87.4354C539.553 98.618 533.892 118.393 530.078 125.165C528.803 127.425 527.832 128.673 526.654 128.275C524.879 127.697 525.145 124.568 527.303 108.864C528.49 100.23 529.965 89.4835 530.682 79.1485C530.815 77.2255 530.27 75.622 529.145 74.6355C528.318 73.9102 527.241 73.5962 526.179 73.7907C523.577 74.2548 523.283 76.414 522.865 81.255C522.78 82.2526 522.687 83.3253 522.554 84.4619C522.201 87.516 521.856 91.5872 521.492 95.8946C519.845 115.311 518.777 123.609 516.404 124.735C515.89 124.979 515.305 124.929 514.796 124.599C512.669 123.198 512.745 116.045 513.429 100.052C513.839 90.4312 514.263 80.4852 513.186 76.9865C512.858 75.9222 511.889 75.333 510.731 75.4664C509.299 75.6387 507.564 77.0004 507.392 80.274C507.378 80.5686 506.169 102.381 506.16 102.5C504.527 127.814 501.182 127.836 499.922 127.844C495.074 127.95 493.122 107.847 492.645 101.708C492.334 97.7093 491.215 96.8728 489.63 96.8728H489.593C488.969 96.8783 488.483 97.1007 488.068 97.5731C485.085 100.969 486.963 114.422 488.622 126.291C489.226 130.621 489.797 134.711 490.167 138.418C490.625 143.004 491.455 147.336 492.331 151.921C494.176 161.559 496.083 171.524 494.472 184.324C492.664 197.182 490.478 210.799 487.783 225.964C487.463 227.759 487.251 229.616 487.028 231.583C486.104 239.759 485.053 249.03 474.917 252.423C469.905 254.093 463.873 252.906 459.175 249.316C455.282 246.34 452.223 241.757 450.324 236.069C447.564 227.793 447.188 218.7 446.824 209.905C446.626 205.141 446.42 200.214 445.832 195.565L444.756 187.114C441.756 163.593 438.651 139.269 437.187 115.239C436.402 102.364 438.947 92.5376 441.408 83.0335C442.58 78.5122 443.685 74.2381 444.437 69.6917C445.044 66.0179 445.877 61.9745 446.759 57.6893C449.177 45.9454 451.917 32.6342 449.157 29.0576C448.773 28.5602 448.304 28.3073 447.68 28.2656C446.061 28.1295 444.897 28.8992 444.324 32.9037C443.456 38.948 440.278 58.5369 435.501 58.5397C435.461 58.5397 435.422 58.5397 435.379 58.5341C434.125 58.448 430.788 58.2201 430.783 32.8537C430.783 32.6203 430.98 10.7748 430.983 10.5914C431.023 7.32332 429.379 5.85602 427.96 5.5948C426.805 5.38638 425.808 5.91716 425.412 6.95927C424.113 10.3857 423.895 20.34 423.686 29.9636C423.339 45.9677 422.954 53.1124 420.742 54.3768C420.214 54.6742 419.629 54.6908 419.132 54.4102C416.838 53.1429 416.304 44.7949 415.908 25.3171C415.821 20.9931 415.736 16.908 415.581 13.8372C415.521 12.6923 415.499 11.6168 415.476 10.6136C415.369 5.76154 415.213 3.59116 412.648 2.96312C411.606 2.71023 410.507 2.94922 409.634 3.62173C408.45 4.53879 407.803 6.10335 407.812 8.02918C407.862 18.3919 408.645 29.2133 409.272 37.9059C410.414 53.7043 410.481 56.839 408.67 57.3058C407.456 57.6254 406.583 56.3249 405.455 53.9905C402.074 46.9764 397.698 26.8817 395.387 15.5268L395.248 14.8488C394.502 12.8785 392.771 12.3727 391.544 12.5533C390.341 12.7367 389.024 13.651 388.937 15.6574C388.539 24.8225 391.318 37.5696 394.008 49.8971C396.599 61.7689 399.045 72.982 398.333 79.8266C398.102 82.0442 397.652 84.3563 396.059 84.6898C394.008 85.1178 392.104 82.0303 388.341 75.5609C384.27 68.5718 378.693 58.9982 373.003 57.5476C371.636 57.203 369.828 57.7088 369.209 58.6175C368.825 59.1817 368.949 59.8875 369.582 60.7184C372.031 63.9392 375.56 71.8287 379.642 80.966C386.507 96.3226 395.051 115.434 402.353 121.144C409.32 126.591 410.49 138.241 411.343 146.75L411.546 148.726C413.052 162.901 412.973 177.049 412.391 193.931C412.244 198.202 412.306 202.538 412.369 206.734C412.606 223.155 412.829 238.664 401.664 252.462C395.339 260.276 386.9 265.464 377.905 267.068C364.559 269.458 349.865 263.603 340.455 252.184C332.971 243.099 328.538 230.436 328.601 218.305C328.657 207.245 329.632 195.059 336.412 188.532C343.082 182.112 349.586 162.231 354.809 146.258C357.914 136.762 360.598 128.561 362.697 125.11C363.24 124.218 363.29 123.504 362.852 122.981C362.143 122.142 360.299 121.822 358.968 122.303C353.459 124.321 348.913 134.408 345.594 141.77C342.523 148.587 340.963 151.891 338.87 151.632C337.251 151.463 336.562 149.209 336.101 147.025C334.677 140.289 335.94 128.889 337.277 116.817C338.664 104.284 340.096 91.3232 338.743 82.2471C338.446 80.2601 337.042 79.4848 335.824 79.4209C334.553 79.3986 332.915 80.0434 332.361 82.1887C332.361 82.186 332.361 82.1832 332.361 82.1832C332.366 82.1832 332.344 82.4277 332.307 82.814C331.197 94.3328 328.94 114.75 326.318 122.045C325.439 124.482 324.699 125.852 323.465 125.668C321.617 125.385 321.354 122.259 320.84 106.421C320.557 97.712 320.207 86.8741 319.173 76.5641C318.981 74.6466 318.17 73.1543 316.896 72.3623C315.961 71.7815 314.845 71.6564 313.831 72.0121C311.345 72.8959 311.415 75.0718 311.819 79.9128C311.901 80.9104 311.989 81.9831 312.051 83.1252C312.218 86.196 312.562 90.27 312.924 94.5802C314.565 113.994 314.904 122.35 312.757 123.845C312.288 124.171 311.703 124.215 311.15 123.973C308.816 122.94 307.686 115.873 305.669 99.988C304.454 90.4339 303.2 80.5547 301.547 77.2783C301.047 76.2806 299.993 75.8499 298.872 76.1778C297.487 76.578 296.007 78.2037 296.388 81.4634L297.075 87.466C297.821 93.9799 298.903 103.478 298.914 103.578C301.558 128.814 298.264 129.378 297.024 129.592C292.306 130.393 286.955 110.976 285.452 104.998C284.466 101.075 283.204 100.469 281.627 100.724C281.011 100.833 280.571 101.13 280.243 101.664C277.873 105.499 281.986 118.46 285.619 129.898C286.944 134.069 288.196 138.01 289.182 141.606C290.405 146.052 291.953 150.19 293.589 154.573C297.03 163.776 300.587 173.294 301.152 186.181C301.33 192.291 301.293 198.539 301.256 204.577C301.2 214.181 301.14 224.116 301.945 233.69C303.242 249.099 300.174 264.178 293.306 276.144C285.311 290.075 271.55 299.234 257.396 300.046C246.672 300.641 236.484 296.706 226.616 292.879C217.553 289.366 208.177 285.731 198.532 285.729H198.523C184.067 285.729 171.057 293.629 158.471 301.269L157.141 302.077C145.874 308.908 132.912 315.997 119.224 315.997L119.236 316Z"/>
<path d="M418.601 104.465L417.858 103.476C411.544 95.0581 407.535 89.3196 405.732 84.8899C403.094 78.4093 405.568 75.4053 406.755 74.4132C408.848 72.6624 412.078 72.5707 414.79 74.1853C416.51 75.208 417.846 77.1421 418.697 79.1402C421.172 73.585 424.723 71.9121 427.469 72.3151C430.449 72.7486 432.554 75.5414 432.585 79.1096C432.656 86.8157 426.243 94.8636 420.587 101.964L418.601 104.465ZM410.741 74.8967C409.702 74.8967 408.73 75.208 407.984 75.8332C406.136 77.3756 405.958 80.4241 407.492 84.1951C409.151 88.2663 412.846 93.6214 418.646 101.38L419.095 100.813C424.291 94.2939 430.757 86.1821 430.692 79.1263C430.667 76.4974 429.229 74.4549 427.192 74.1603C424.963 73.8351 421.604 75.7721 419.527 82.2971L418.426 85.7597L417.694 82.2026C417.231 79.9433 415.815 76.9726 413.812 75.7804C412.82 75.1885 411.75 74.8967 410.741 74.8967Z"/>
</mask>
<path d="M318.521 173.581L316.289 171.296C309.918 164.805 302.697 157.449 301.962 149.776C301.623 146.225 303.423 143.232 306.344 142.498C309.022 141.825 312.737 143.126 315.783 148.4C316.421 146.327 317.546 144.265 319.151 143.076C321.682 141.2 324.9 140.961 327.168 142.49C328.454 143.357 331.228 146.094 329.281 152.808C327.945 157.415 324.693 163.29 319.159 172.522L318.521 173.581ZM307.658 144.204C307.358 144.204 307.076 144.24 306.813 144.304C304.819 144.804 303.601 146.983 303.852 149.598C304.525 156.623 311.805 164.04 317.656 170.001L318.159 170.515C323.117 162.209 326.236 156.509 327.459 152.294C328.592 148.389 328.095 145.374 326.095 144.026C324.498 142.948 322.168 143.17 320.292 144.563C318.424 145.949 317.331 149.051 317.102 151.346L316.746 154.959L315.289 151.627C312.87 146.097 309.842 144.204 307.658 144.204Z" fill="white" fill-opacity="0.2"/>
<path d="M513.726 174.723L511.915 172.119C506.719 164.677 500.832 156.243 501.397 148.553C501.66 144.996 503.939 142.337 506.943 142.089C509.694 141.87 513.144 143.751 515.254 149.448C516.232 147.508 517.689 145.66 519.472 144.746C522.28 143.304 525.498 143.596 527.478 145.471C528.597 146.533 530.877 149.687 527.826 155.99C525.741 160.3 521.37 165.78 514.528 173.784L513.726 174.723ZM507.369 143.935C507.279 143.935 507.188 143.937 507.101 143.946C505.05 144.115 503.482 146.063 503.287 148.687C502.77 155.729 508.705 164.232 513.477 171.066L513.881 171.644C520.164 164.263 524.198 159.152 526.114 155.189C527.888 151.521 527.905 148.467 526.162 146.811C524.769 145.491 522.433 145.321 520.348 146.394C518.271 147.461 516.672 150.34 516.062 152.566L515.102 156.073L514.223 152.547C512.635 146.161 509.604 143.935 507.369 143.935Z" fill="white" fill-opacity="0.2"/>
<path d="M119.236 316C117.456 316 115.665 315.881 113.862 315.625C99.9486 313.652 89.1397 304.087 78.6895 294.835C69.0219 286.279 59.0266 277.431 46.6497 274.705C32.3913 271.564 18.1809 276.819 2.4138 283.483L1.66797 281.769C17.7458 274.977 32.2585 269.616 47.065 272.887C59.925 275.722 70.1096 284.734 79.958 293.451C90.6709 302.933 100.79 311.89 114.134 313.782C129.177 315.911 143.71 308.041 156.155 300.496L157.485 299.687C170.292 291.909 183.539 283.87 198.532 283.87H198.54C208.547 283.87 218.09 287.571 227.317 291.148C236.993 294.899 246.977 298.779 257.291 298.19C270.81 297.414 283.98 288.616 291.662 275.23C298.247 263.755 301.31 248.671 300.064 233.848C299.25 224.191 299.31 214.215 299.366 204.569C299.403 198.544 299.44 192.314 299.262 186.25C298.708 173.67 295.205 164.291 291.815 155.217C290.165 150.799 288.602 146.622 287.356 142.095C286.379 138.535 285.13 134.611 283.814 130.457C279.698 117.496 275.813 105.251 278.63 100.697C279.246 99.699 280.147 99.0932 281.305 98.8903C285.653 98.1094 286.856 102.795 287.297 104.551C291.778 122.342 295.719 127.755 296.688 127.755C296.694 127.755 296.702 127.755 296.705 127.755C296.73 127.747 299.428 126.619 297.035 103.776C297.021 103.64 295.939 94.1716 295.196 87.6744L294.51 81.6746C294.027 77.5562 296.086 75.0468 298.341 74.3909C300.366 73.8046 302.338 74.6327 303.254 76.4502C305.047 80.01 306.268 89.603 307.556 99.7574C308.678 108.581 310.2 120.561 311.791 122.156C313.161 119.824 311.842 104.193 311.042 94.7386C310.675 90.4145 310.33 86.3266 310.164 83.2281C310.102 82.1081 310.014 81.0521 309.932 80.0712C309.542 75.3775 309.234 71.6703 313.189 70.2642C314.749 69.7056 316.472 69.8973 317.907 70.7894C319.687 71.8954 320.809 73.8796 321.057 76.3835C322.097 86.7546 322.45 97.6287 322.733 106.366C322.964 113.455 323.202 120.758 323.787 123.223C323.973 122.851 324.219 122.284 324.53 121.425C326.394 116.234 328.541 102.094 330.417 82.6389C330.474 82.0581 330.516 81.7385 330.522 81.7219C331.301 78.7039 333.779 77.4561 335.921 77.5618C337.946 77.6674 340.181 79.0707 340.616 81.9775C342.006 91.2898 340.557 104.37 339.158 117.02C337.842 128.939 336.596 140.197 337.955 146.647C338.548 149.454 339.099 149.782 339.121 149.793C340.02 149.537 342.24 144.61 343.862 141.014C347.509 132.922 352.049 122.848 358.307 120.555C360.397 119.791 363.087 120.344 364.31 121.789C364.878 122.462 365.638 123.912 364.324 126.069C362.335 129.334 359.686 137.44 356.615 146.83C351.326 162.998 344.743 183.121 337.737 189.865C331.454 195.915 330.55 207.64 330.496 218.316C330.437 230.03 334.711 242.249 341.93 251.008C350.911 261.907 364.904 267.482 377.566 265.231C385.987 263.73 394.228 258.653 400.181 251.297C410.925 238.019 410.705 222.835 410.473 206.756C410.414 202.54 410.351 198.18 410.498 193.864C411.08 177.057 411.159 162.982 409.665 148.915L409.461 146.93C408.639 138.755 407.518 127.558 401.178 122.603C393.505 116.606 384.857 97.2591 377.91 81.7163C373.873 72.6847 370.387 64.8841 368.068 61.8328C366.539 59.8208 367.141 58.3035 367.635 57.5754C368.703 56.0164 371.328 55.1911 373.478 55.7413C379.942 57.3892 385.51 66.9516 389.985 74.6327C391.968 78.0397 394.686 82.7056 395.703 82.8612C395.672 82.839 396.161 82.3888 396.446 79.6376C397.127 73.0848 394.711 62.0134 392.152 50.2889C389.44 37.8475 386.632 24.9837 387.038 15.5796C387.165 12.6423 389.245 11.0193 391.248 10.7137C393.344 10.3885 395.963 11.3806 397.056 14.3124C397.062 14.3291 397.135 14.6264 397.243 15.1628C401.141 34.3405 404.758 48.2047 407.165 53.193C407.56 54.0183 407.865 54.5547 408.088 54.9048C408.416 52.3926 407.891 45.1117 407.376 38.0393C406.746 29.3189 405.961 18.4642 405.91 8.04029C405.896 5.5281 406.8 3.43832 408.456 2.15722C409.789 1.12622 411.479 0.759395 413.097 1.15679C417.177 2.15444 417.259 5.86992 417.363 10.5775C417.386 11.564 417.409 12.6228 417.465 13.7455C417.623 16.8468 417.708 20.9458 417.796 25.2838C417.988 34.7712 418.307 50.4585 419.917 52.6372C421.33 50.9031 421.593 38.8201 421.785 29.9274C422.008 19.6953 422.217 10.0328 423.629 6.309C424.353 4.40818 426.243 3.3883 428.299 3.76346C430.61 4.18864 432.921 6.47573 432.87 10.6247C432.865 10.911 432.673 32.5174 432.67 32.8593C432.676 55.8219 435.478 56.6722 435.506 56.6806C436.441 56.6583 439.823 50.9198 442.439 32.6481C442.719 30.6889 443.371 26.0952 447.81 26.4121C448.985 26.4954 449.943 27.0095 450.66 27.9405C453.94 32.1867 451.35 44.7588 448.612 58.0701C447.734 62.333 446.906 66.3625 446.304 70.0002C445.538 74.6272 444.422 78.9401 443.242 83.5032C440.818 92.8683 438.312 102.553 439.077 115.136C440.538 139.105 443.64 163.399 446.637 186.892L447.714 195.343C448.313 200.07 448.519 205.036 448.717 209.838C449.075 218.505 449.448 227.465 452.127 235.496C453.906 240.829 456.746 245.103 460.342 247.851C464.543 251.061 469.894 252.142 474.31 250.666C483.305 247.654 484.2 239.753 485.147 231.383C485.361 229.477 485.587 227.507 485.915 225.653C488.607 210.508 490.791 196.913 492.594 184.091C494.167 171.591 492.289 161.773 490.469 152.274C489.585 147.645 488.746 143.273 488.283 138.607C487.915 134.936 487.348 130.862 486.746 126.552C484.867 113.099 483.093 100.394 486.638 96.3587C487.412 95.475 488.404 95.0248 489.579 95.0137H489.633C494.029 95.0137 494.399 99.774 494.537 101.569C495.973 119.969 498.981 125.905 499.914 125.985C499.939 125.98 502.79 125.304 504.27 102.386C504.287 102.117 505.49 80.388 505.502 80.1851C505.719 76.0389 508.169 73.9018 510.502 73.6212C512.587 73.3822 514.404 74.5077 515.003 76.4502C516.172 80.2546 515.76 89.9115 515.325 100.138C514.946 109.022 514.432 121.089 515.732 122.917C517.477 120.841 518.805 105.204 519.605 95.7473C519.972 91.426 520.32 87.3409 520.676 84.2591C520.803 83.1419 520.896 82.0887 520.978 81.1049C521.385 76.4113 521.704 72.7069 525.843 71.9649C527.473 71.6703 529.142 72.14 530.408 73.2516C531.979 74.6299 532.747 76.7725 532.572 79.2819C531.852 89.678 530.371 100.458 529.182 109.12C528.216 116.151 527.221 123.392 527.388 125.919C527.634 125.582 527.973 125.065 528.419 124.268C531.137 119.446 535.635 105.849 540.759 86.9602C540.909 86.4072 541.002 86.1043 541.008 86.0904C542.291 83.2336 544.966 82.4249 547.034 82.8612C549.014 83.292 550.984 85.0427 550.921 87.9801C550.724 97.3897 547.096 110.053 543.587 122.298C540.282 133.839 537.157 144.741 537.417 151.324C537.527 154.186 538.016 154.6 538.039 154.617C538.968 154.511 541.985 150.015 544.189 146.73C549.147 139.341 555.32 130.145 561.877 128.903C564.058 128.495 566.629 129.473 567.592 131.099C568.042 131.854 568.545 133.408 566.886 135.32C564.375 138.218 560.394 145.783 555.786 154.545C547.85 169.629 537.977 188.401 529.934 193.909C519.192 201.268 518.11 223.188 517.396 237.691C517.285 239.904 517.186 241.929 517.062 243.686C516.076 257.528 517.706 281.827 539.677 289.058C553.84 293.721 569.211 290.078 581.026 286.39C584.162 285.412 587.286 284.359 590.411 283.305C600.709 279.837 611.357 276.25 622.397 275.419C636.61 274.34 650.917 277.853 664.749 281.243C682.414 285.573 699.094 289.661 715.788 285.184C726.969 282.186 736.815 275.458 746.339 268.952C748.669 267.36 750.994 265.77 753.339 264.233C763.493 257.581 778.813 249.005 794.668 251.32L794.388 253.165C779.195 250.936 764.281 259.301 754.39 265.784C752.057 267.315 749.74 268.899 747.418 270.483C737.767 277.078 727.783 283.9 716.285 286.985C699.119 291.59 681.411 287.252 664.288 283.055C650.603 279.704 636.452 276.23 622.541 277.283C611.741 278.098 601.209 281.644 591.024 285.076C587.885 286.134 584.747 287.19 581.597 288.171C569.508 291.945 553.749 295.661 539.073 290.831C515.89 283.203 514.144 257.942 515.167 243.561C515.291 241.815 515.39 239.806 515.497 237.608C516.232 222.738 517.339 200.264 528.846 192.383C536.502 187.139 546.257 168.592 554.097 153.692C558.758 144.829 562.784 137.173 565.437 134.114C566.123 133.322 566.296 132.624 565.948 132.038C565.389 131.096 563.626 130.473 562.23 130.735C556.456 131.827 550.28 141.033 545.768 147.758C541.59 153.981 539.48 156.949 537.477 156.39C535.906 155.956 535.606 153.622 535.519 151.393C535.25 144.518 538.412 133.477 541.76 121.792C545.234 109.656 548.831 97.1118 549.023 87.9384C549.065 85.9292 547.811 84.9371 546.622 84.6787C545.393 84.4036 543.644 84.8176 542.74 86.8407C542.745 86.824 542.712 86.9769 542.587 87.4354C539.553 98.618 533.892 118.393 530.078 125.165C528.803 127.425 527.832 128.673 526.654 128.275C524.879 127.697 525.145 124.568 527.303 108.864C528.49 100.23 529.965 89.4835 530.682 79.1485C530.815 77.2255 530.27 75.622 529.145 74.6355C528.318 73.9102 527.241 73.5962 526.179 73.7907C523.577 74.2548 523.283 76.414 522.865 81.255C522.78 82.2526 522.687 83.3253 522.554 84.4619C522.201 87.516 521.856 91.5872 521.492 95.8946C519.845 115.311 518.777 123.609 516.404 124.735C515.89 124.979 515.305 124.929 514.796 124.599C512.669 123.198 512.745 116.045 513.429 100.052C513.839 90.4312 514.263 80.4852 513.186 76.9865C512.858 75.9222 511.889 75.333 510.731 75.4664C509.299 75.6387 507.564 77.0004 507.392 80.274C507.378 80.5686 506.169 102.381 506.16 102.5C504.527 127.814 501.182 127.836 499.922 127.844C495.074 127.95 493.122 107.847 492.645 101.708C492.334 97.7093 491.215 96.8728 489.63 96.8728H489.593C488.969 96.8783 488.483 97.1007 488.068 97.5731C485.085 100.969 486.963 114.422 488.622 126.291C489.226 130.621 489.797 134.711 490.167 138.418C490.625 143.004 491.455 147.336 492.331 151.921C494.176 161.559 496.083 171.524 494.472 184.324C492.664 197.182 490.478 210.799 487.783 225.964C487.463 227.759 487.251 229.616 487.028 231.583C486.104 239.759 485.053 249.03 474.917 252.423C469.905 254.093 463.873 252.906 459.175 249.316C455.282 246.34 452.223 241.757 450.324 236.069C447.564 227.793 447.188 218.7 446.824 209.905C446.626 205.141 446.42 200.214 445.832 195.565L444.756 187.114C441.756 163.593 438.651 139.269 437.187 115.239C436.402 102.364 438.947 92.5376 441.408 83.0335C442.58 78.5122 443.685 74.2381 444.437 69.6917C445.044 66.0179 445.877 61.9745 446.759 57.6893C449.177 45.9454 451.917 32.6342 449.157 29.0576C448.773 28.5602 448.304 28.3073 447.68 28.2656C446.061 28.1295 444.897 28.8992 444.324 32.9037C443.456 38.948 440.278 58.5369 435.501 58.5397C435.461 58.5397 435.422 58.5397 435.379 58.5341C434.125 58.448 430.788 58.2201 430.783 32.8537C430.783 32.6203 430.98 10.7748 430.983 10.5914C431.023 7.32332 429.379 5.85602 427.96 5.5948C426.805 5.38638 425.808 5.91716 425.412 6.95927C424.113 10.3857 423.895 20.34 423.686 29.9636C423.339 45.9677 422.954 53.1124 420.742 54.3768C420.214 54.6742 419.629 54.6908 419.132 54.4102C416.838 53.1429 416.304 44.7949 415.908 25.3171C415.821 20.9931 415.736 16.908 415.581 13.8372C415.521 12.6923 415.499 11.6168 415.476 10.6136C415.369 5.76154 415.213 3.59116 412.648 2.96312C411.606 2.71023 410.507 2.94922 409.634 3.62173C408.45 4.53879 407.803 6.10335 407.812 8.02918C407.862 18.3919 408.645 29.2133 409.272 37.9059C410.414 53.7043 410.481 56.839 408.67 57.3058C407.456 57.6254 406.583 56.3249 405.455 53.9905C402.074 46.9764 397.698 26.8817 395.387 15.5268L395.248 14.8488C394.502 12.8785 392.771 12.3727 391.544 12.5533C390.341 12.7367 389.024 13.651 388.937 15.6574C388.539 24.8225 391.318 37.5696 394.008 49.8971C396.599 61.7689 399.045 72.982 398.333 79.8266C398.102 82.0442 397.652 84.3563 396.059 84.6898C394.008 85.1178 392.104 82.0303 388.341 75.5609C384.27 68.5718 378.693 58.9982 373.003 57.5476C371.636 57.203 369.828 57.7088 369.209 58.6175C368.825 59.1817 368.949 59.8875 369.582 60.7184C372.031 63.9392 375.56 71.8287 379.642 80.966C386.507 96.3226 395.051 115.434 402.353 121.144C409.32 126.591 410.49 138.241 411.343 146.75L411.546 148.726C413.052 162.901 412.973 177.049 412.391 193.931C412.244 198.202 412.306 202.538 412.369 206.734C412.606 223.155 412.829 238.664 401.664 252.462C395.339 260.276 386.9 265.464 377.905 267.068C364.559 269.458 349.865 263.603 340.455 252.184C332.971 243.099 328.538 230.436 328.601 218.305C328.657 207.245 329.632 195.059 336.412 188.532C343.082 182.112 349.586 162.231 354.809 146.258C357.914 136.762 360.598 128.561 362.697 125.11C363.24 124.218 363.29 123.504 362.852 122.981C362.143 122.142 360.299 121.822 358.968 122.303C353.459 124.321 348.913 134.408 345.594 141.77C342.523 148.587 340.963 151.891 338.87 151.632C337.251 151.463 336.562 149.209 336.101 147.025C334.677 140.289 335.94 128.889 337.277 116.817C338.664 104.284 340.096 91.3232 338.743 82.2471C338.446 80.2601 337.042 79.4848 335.824 79.4209C334.553 79.3986 332.915 80.0434 332.361 82.1887C332.361 82.186 332.361 82.1832 332.361 82.1832C332.366 82.1832 332.344 82.4277 332.307 82.814C331.197 94.3328 328.94 114.75 326.318 122.045C325.439 124.482 324.699 125.852 323.465 125.668C321.617 125.385 321.354 122.259 320.84 106.421C320.557 97.712 320.207 86.8741 319.173 76.5641C318.981 74.6466 318.17 73.1543 316.896 72.3623C315.961 71.7815 314.845 71.6564 313.831 72.0121C311.345 72.8959 311.415 75.0718 311.819 79.9128C311.901 80.9104 311.989 81.9831 312.051 83.1252C312.218 86.196 312.562 90.27 312.924 94.5802C314.565 113.994 314.904 122.35 312.757 123.845C312.288 124.171 311.703 124.215 311.15 123.973C308.816 122.94 307.686 115.873 305.669 99.988C304.454 90.4339 303.2 80.5547 301.547 77.2783C301.047 76.2806 299.993 75.8499 298.872 76.1778C297.487 76.578 296.007 78.2037 296.388 81.4634L297.075 87.466C297.821 93.9799 298.903 103.478 298.914 103.578C301.558 128.814 298.264 129.378 297.024 129.592C292.306 130.393 286.955 110.976 285.452 104.998C284.466 101.075 283.204 100.469 281.627 100.724C281.011 100.833 280.571 101.13 280.243 101.664C277.873 105.499 281.986 118.46 285.619 129.898C286.944 134.069 288.196 138.01 289.182 141.606C290.405 146.052 291.953 150.19 293.589 154.573C297.03 163.776 300.587 173.294 301.152 186.181C301.33 192.291 301.293 198.539 301.256 204.577C301.2 214.181 301.14 224.116 301.945 233.69C303.242 249.099 300.174 264.178 293.306 276.144C285.311 290.075 271.55 299.234 257.396 300.046C246.672 300.641 236.484 296.706 226.616 292.879C217.553 289.366 208.177 285.731 198.532 285.729H198.523C184.067 285.729 171.057 293.629 158.471 301.269L157.141 302.077C145.874 308.908 132.912 315.997 119.224 315.997L119.236 316Z" fill="white" fill-opacity="0.2"/>
<path d="M418.601 104.465L417.858 103.476C411.544 95.0581 407.535 89.3196 405.732 84.8899C403.094 78.4093 405.568 75.4053 406.755 74.4132C408.848 72.6624 412.078 72.5707 414.79 74.1853C416.51 75.208 417.846 77.1421 418.697 79.1402C421.172 73.585 424.723 71.9121 427.469 72.3151C430.449 72.7486 432.554 75.5414 432.585 79.1096C432.656 86.8157 426.243 94.8636 420.587 101.964L418.601 104.465ZM410.741 74.8967C409.702 74.8967 408.73 75.208 407.984 75.8332C406.136 77.3756 405.958 80.4241 407.492 84.1951C409.151 88.2663 412.846 93.6214 418.646 101.38L419.095 100.813C424.291 94.2939 430.757 86.1821 430.692 79.1263C430.667 76.4974 429.229 74.4549 427.192 74.1603C424.963 73.8351 421.604 75.7721 419.527 82.2971L418.426 85.7597L417.694 82.2026C417.231 79.9433 415.815 76.9726 413.812 75.7804C412.82 75.1885 411.75 74.8967 410.741 74.8967Z" fill="white" fill-opacity="0.2"/>
<path d="M318.521 173.581L316.289 171.296C309.918 164.805 302.697 157.449 301.962 149.776C301.623 146.225 303.423 143.232 306.344 142.498C309.022 141.825 312.737 143.126 315.783 148.4C316.421 146.327 317.546 144.265 319.151 143.076C321.682 141.2 324.9 140.961 327.168 142.49C328.454 143.357 331.228 146.094 329.281 152.808C327.945 157.415 324.693 163.29 319.159 172.522L318.521 173.581ZM307.658 144.204C307.358 144.204 307.076 144.24 306.813 144.304C304.819 144.804 303.601 146.983 303.852 149.598C304.525 156.623 311.805 164.04 317.656 170.001L318.159 170.515C323.117 162.209 326.236 156.509 327.459 152.294C328.592 148.389 328.095 145.374 326.095 144.026C324.498 142.948 322.168 143.17 320.292 144.563C318.424 145.949 317.331 149.051 317.102 151.346L316.746 154.959L315.289 151.627C312.87 146.097 309.842 144.204 307.658 144.204Z" stroke="white" stroke-opacity="0.2" stroke-width="2" mask="url(#path-1-outside-1_3890_3655)"/>
<path d="M513.726 174.723L511.915 172.119C506.719 164.677 500.832 156.243 501.397 148.553C501.66 144.996 503.939 142.337 506.943 142.089C509.694 141.87 513.144 143.751 515.254 149.448C516.232 147.508 517.689 145.66 519.472 144.746C522.28 143.304 525.498 143.596 527.478 145.471C528.597 146.533 530.877 149.687 527.826 155.99C525.741 160.3 521.37 165.78 514.528 173.784L513.726 174.723ZM507.369 143.935C507.279 143.935 507.188 143.937 507.101 143.946C505.05 144.115 503.482 146.063 503.287 148.687C502.77 155.729 508.705 164.232 513.477 171.066L513.881 171.644C520.164 164.263 524.198 159.152 526.114 155.189C527.888 151.521 527.905 148.467 526.162 146.811C524.769 145.491 522.433 145.321 520.348 146.394C518.271 147.461 516.672 150.34 516.062 152.566L515.102 156.073L514.223 152.547C512.635 146.161 509.604 143.935 507.369 143.935Z" stroke="white" stroke-opacity="0.2" stroke-width="2" mask="url(#path-1-outside-1_3890_3655)"/>
<path d="M119.236 316C117.456 316 115.665 315.881 113.862 315.625C99.9486 313.652 89.1397 304.087 78.6895 294.835C69.0219 286.279 59.0266 277.431 46.6497 274.705C32.3913 271.564 18.1809 276.819 2.4138 283.483L1.66797 281.769C17.7458 274.977 32.2585 269.616 47.065 272.887C59.925 275.722 70.1096 284.734 79.958 293.451C90.6709 302.933 100.79 311.89 114.134 313.782C129.177 315.911 143.71 308.041 156.155 300.496L157.485 299.687C170.292 291.909 183.539 283.87 198.532 283.87H198.54C208.547 283.87 218.09 287.571 227.317 291.148C236.993 294.899 246.977 298.779 257.291 298.19C270.81 297.414 283.98 288.616 291.662 275.23C298.247 263.755 301.31 248.671 300.064 233.848C299.25 224.191 299.31 214.215 299.366 204.569C299.403 198.544 299.44 192.314 299.262 186.25C298.708 173.67 295.205 164.291 291.815 155.217C290.165 150.799 288.602 146.622 287.356 142.095C286.379 138.535 285.13 134.611 283.814 130.457C279.698 117.496 275.813 105.251 278.63 100.697C279.246 99.699 280.147 99.0932 281.305 98.8903C285.653 98.1094 286.856 102.795 287.297 104.551C291.778 122.342 295.719 127.755 296.688 127.755C296.694 127.755 296.702 127.755 296.705 127.755C296.73 127.747 299.428 126.619 297.035 103.776C297.021 103.64 295.939 94.1716 295.196 87.6744L294.51 81.6746C294.027 77.5562 296.086 75.0468 298.341 74.3909C300.366 73.8046 302.338 74.6327 303.254 76.4502C305.047 80.01 306.268 89.603 307.556 99.7574C308.678 108.581 310.2 120.561 311.791 122.156C313.161 119.824 311.842 104.193 311.042 94.7386C310.675 90.4145 310.33 86.3266 310.164 83.2281C310.102 82.1081 310.014 81.0521 309.932 80.0712C309.542 75.3775 309.234 71.6703 313.189 70.2642C314.749 69.7056 316.472 69.8973 317.907 70.7894C319.687 71.8954 320.809 73.8796 321.057 76.3835C322.097 86.7546 322.45 97.6287 322.733 106.366C322.964 113.455 323.202 120.758 323.787 123.223C323.973 122.851 324.219 122.284 324.53 121.425C326.394 116.234 328.541 102.094 330.417 82.6389C330.474 82.0581 330.516 81.7385 330.522 81.7219C331.301 78.7039 333.779 77.4561 335.921 77.5618C337.946 77.6674 340.181 79.0707 340.616 81.9775C342.006 91.2898 340.557 104.37 339.158 117.02C337.842 128.939 336.596 140.197 337.955 146.647C338.548 149.454 339.099 149.782 339.121 149.793C340.02 149.537 342.24 144.61 343.862 141.014C347.509 132.922 352.049 122.848 358.307 120.555C360.397 119.791 363.087 120.344 364.31 121.789C364.878 122.462 365.638 123.912 364.324 126.069C362.335 129.334 359.686 137.44 356.615 146.83C351.326 162.998 344.743 183.121 337.737 189.865C331.454 195.915 330.55 207.64 330.496 218.316C330.437 230.03 334.711 242.249 341.93 251.008C350.911 261.907 364.904 267.482 377.566 265.231C385.987 263.73 394.228 258.653 400.181 251.297C410.925 238.019 410.705 222.835 410.473 206.756C410.414 202.54 410.351 198.18 410.498 193.864C411.08 177.057 411.159 162.982 409.665 148.915L409.461 146.93C408.639 138.755 407.518 127.558 401.178 122.603C393.505 116.606 384.857 97.2591 377.91 81.7163C373.873 72.6847 370.387 64.8841 368.068 61.8328C366.539 59.8208 367.141 58.3035 367.635 57.5754C368.703 56.0164 371.328 55.1911 373.478 55.7413C379.942 57.3892 385.51 66.9516 389.985 74.6327C391.968 78.0397 394.686 82.7056 395.703 82.8612C395.672 82.839 396.161 82.3888 396.446 79.6376C397.127 73.0848 394.711 62.0134 392.152 50.2889C389.44 37.8475 386.632 24.9837 387.038 15.5796C387.165 12.6423 389.245 11.0193 391.248 10.7137C393.344 10.3885 395.963 11.3806 397.056 14.3124C397.062 14.3291 397.135 14.6264 397.243 15.1628C401.141 34.3405 404.758 48.2047 407.165 53.193C407.56 54.0183 407.865 54.5547 408.088 54.9048C408.416 52.3926 407.891 45.1117 407.376 38.0393C406.746 29.3189 405.961 18.4642 405.91 8.04029C405.896 5.5281 406.8 3.43832 408.456 2.15722C409.789 1.12622 411.479 0.759395 413.097 1.15679C417.177 2.15444 417.259 5.86992 417.363 10.5775C417.386 11.564 417.409 12.6228 417.465 13.7455C417.623 16.8468 417.708 20.9458 417.796 25.2838C417.988 34.7712 418.307 50.4585 419.917 52.6372C421.33 50.9031 421.593 38.8201 421.785 29.9274C422.008 19.6953 422.217 10.0328 423.629 6.309C424.353 4.40818 426.243 3.3883 428.299 3.76346C430.61 4.18864 432.921 6.47573 432.87 10.6247C432.865 10.911 432.673 32.5174 432.67 32.8593C432.676 55.8219 435.478 56.6722 435.506 56.6806C436.441 56.6583 439.823 50.9198 442.439 32.6481C442.719 30.6889 443.371 26.0952 447.81 26.4121C448.985 26.4954 449.943 27.0095 450.66 27.9405C453.94 32.1867 451.35 44.7588 448.612 58.0701C447.734 62.333 446.906 66.3625 446.304 70.0002C445.538 74.6272 444.422 78.9401 443.242 83.5032C440.818 92.8683 438.312 102.553 439.077 115.136C440.538 139.105 443.64 163.399 446.637 186.892L447.714 195.343C448.313 200.07 448.519 205.036 448.717 209.838C449.075 218.505 449.448 227.465 452.127 235.496C453.906 240.829 456.746 245.103 460.342 247.851C464.543 251.061 469.894 252.142 474.31 250.666C483.305 247.654 484.2 239.753 485.147 231.383C485.361 229.477 485.587 227.507 485.915 225.653C488.607 210.508 490.791 196.913 492.594 184.091C494.167 171.591 492.289 161.773 490.469 152.274C489.585 147.645 488.746 143.273 488.283 138.607C487.915 134.936 487.348 130.862 486.746 126.552C484.867 113.099 483.093 100.394 486.638 96.3587C487.412 95.475 488.404 95.0248 489.579 95.0137H489.633C494.029 95.0137 494.399 99.774 494.537 101.569C495.973 119.969 498.981 125.905 499.914 125.985C499.939 125.98 502.79 125.304 504.27 102.386C504.287 102.117 505.49 80.388 505.502 80.1851C505.719 76.0389 508.169 73.9018 510.502 73.6212C512.587 73.3822 514.404 74.5077 515.003 76.4502C516.172 80.2546 515.76 89.9115 515.325 100.138C514.946 109.022 514.432 121.089 515.732 122.917C517.477 120.841 518.805 105.204 519.605 95.7473C519.972 91.426 520.32 87.3409 520.676 84.2591C520.803 83.1419 520.896 82.0887 520.978 81.1049C521.385 76.4113 521.704 72.7069 525.843 71.9649C527.473 71.6703 529.142 72.14 530.408 73.2516C531.979 74.6299 532.747 76.7725 532.572 79.2819C531.852 89.678 530.371 100.458 529.182 109.12C528.216 116.151 527.221 123.392 527.388 125.919C527.634 125.582 527.973 125.065 528.419 124.268C531.137 119.446 535.635 105.849 540.759 86.9602C540.909 86.4072 541.002 86.1043 541.008 86.0904C542.291 83.2336 544.966 82.4249 547.034 82.8612C549.014 83.292 550.984 85.0427 550.921 87.9801C550.724 97.3897 547.096 110.053 543.587 122.298C540.282 133.839 537.157 144.741 537.417 151.324C537.527 154.186 538.016 154.6 538.039 154.617C538.968 154.511 541.985 150.015 544.189 146.73C549.147 139.341 555.32 130.145 561.877 128.903C564.058 128.495 566.629 129.473 567.592 131.099C568.042 131.854 568.545 133.408 566.886 135.32C564.375 138.218 560.394 145.783 555.786 154.545C547.85 169.629 537.977 188.401 529.934 193.909C519.192 201.268 518.11 223.188 517.396 237.691C517.285 239.904 517.186 241.929 517.062 243.686C516.076 257.528 517.706 281.827 539.677 289.058C553.84 293.721 569.211 290.078 581.026 286.39C584.162 285.412 587.286 284.359 590.411 283.305C600.709 279.837 611.357 276.25 622.397 275.419C636.61 274.34 650.917 277.853 664.749 281.243C682.414 285.573 699.094 289.661 715.788 285.184C726.969 282.186 736.815 275.458 746.339 268.952C748.669 267.36 750.994 265.77 753.339 264.233C763.493 257.581 778.813 249.005 794.668 251.32L794.388 253.165C779.195 250.936 764.281 259.301 754.39 265.784C752.057 267.315 749.74 268.899 747.418 270.483C737.767 277.078 727.783 283.9 716.285 286.985C699.119 291.59 681.411 287.252 664.288 283.055C650.603 279.704 636.452 276.23 622.541 277.283C611.741 278.098 601.209 281.644 591.024 285.076C587.885 286.134 584.747 287.19 581.597 288.171C569.508 291.945 553.749 295.661 539.073 290.831C515.89 283.203 514.144 257.942 515.167 243.561C515.291 241.815 515.39 239.806 515.497 237.608C516.232 222.738 517.339 200.264 528.846 192.383C536.502 187.139 546.257 168.592 554.097 153.692C558.758 144.829 562.784 137.173 565.437 134.114C566.123 133.322 566.296 132.624 565.948 132.038C565.389 131.096 563.626 130.473 562.23 130.735C556.456 131.827 550.28 141.033 545.768 147.758C541.59 153.981 539.48 156.949 537.477 156.39C535.906 155.956 535.606 153.622 535.519 151.393C535.25 144.518 538.412 133.477 541.76 121.792C545.234 109.656 548.831 97.1118 549.023 87.9384C549.065 85.9292 547.811 84.9371 546.622 84.6787C545.393 84.4036 543.644 84.8176 542.74 86.8407C542.745 86.824 542.712 86.9769 542.587 87.4354C539.553 98.618 533.892 118.393 530.078 125.165C528.803 127.425 527.832 128.673 526.654 128.275C524.879 127.697 525.145 124.568 527.303 108.864C528.49 100.23 529.965 89.4835 530.682 79.1485C530.815 77.2255 530.27 75.622 529.145 74.6355C528.318 73.9102 527.241 73.5962 526.179 73.7907C523.577 74.2548 523.283 76.414 522.865 81.255C522.78 82.2526 522.687 83.3253 522.554 84.4619C522.201 87.516 521.856 91.5872 521.492 95.8946C519.845 115.311 518.777 123.609 516.404 124.735C515.89 124.979 515.305 124.929 514.796 124.599C512.669 123.198 512.745 116.045 513.429 100.052C513.839 90.4312 514.263 80.4852 513.186 76.9865C512.858 75.9222 511.889 75.333 510.731 75.4664C509.299 75.6387 507.564 77.0004 507.392 80.274C507.378 80.5686 506.169 102.381 506.16 102.5C504.527 127.814 501.182 127.836 499.922 127.844C495.074 127.95 493.122 107.847 492.645 101.708C492.334 97.7093 491.215 96.8728 489.63 96.8728H489.593C488.969 96.8783 488.483 97.1007 488.068 97.5731C485.085 100.969 486.963 114.422 488.622 126.291C489.226 130.621 489.797 134.711 490.167 138.418C490.625 143.004 491.455 147.336 492.331 151.921C494.176 161.559 496.083 171.524 494.472 184.324C492.664 197.182 490.478 210.799 487.783 225.964C487.463 227.759 487.251 229.616 487.028 231.583C486.104 239.759 485.053 249.03 474.917 252.423C469.905 254.093 463.873 252.906 459.175 249.316C455.282 246.34 452.223 241.757 450.324 236.069C447.564 227.793 447.188 218.7 446.824 209.905C446.626 205.141 446.42 200.214 445.832 195.565L444.756 187.114C441.756 163.593 438.651 139.269 437.187 115.239C436.402 102.364 438.947 92.5376 441.408 83.0335C442.58 78.5122 443.685 74.2381 444.437 69.6917C445.044 66.0179 445.877 61.9745 446.759 57.6893C449.177 45.9454 451.917 32.6342 449.157 29.0576C448.773 28.5602 448.304 28.3073 447.68 28.2656C446.061 28.1295 444.897 28.8992 444.324 32.9037C443.456 38.948 440.278 58.5369 435.501 58.5397C435.461 58.5397 435.422 58.5397 435.379 58.5341C434.125 58.448 430.788 58.2201 430.783 32.8537C430.783 32.6203 430.98 10.7748 430.983 10.5914C431.023 7.32332 429.379 5.85602 427.96 5.5948C426.805 5.38638 425.808 5.91716 425.412 6.95927C424.113 10.3857 423.895 20.34 423.686 29.9636C423.339 45.9677 422.954 53.1124 420.742 54.3768C420.214 54.6742 419.629 54.6908 419.132 54.4102C416.838 53.1429 416.304 44.7949 415.908 25.3171C415.821 20.9931 415.736 16.908 415.581 13.8372C415.521 12.6923 415.499 11.6168 415.476 10.6136C415.369 5.76154 415.213 3.59116 412.648 2.96312C411.606 2.71023 410.507 2.94922 409.634 3.62173C408.45 4.53879 407.803 6.10335 407.812 8.02918C407.862 18.3919 408.645 29.2133 409.272 37.9059C410.414 53.7043 410.481 56.839 408.67 57.3058C407.456 57.6254 406.583 56.3249 405.455 53.9905C402.074 46.9764 397.698 26.8817 395.387 15.5268L395.248 14.8488C394.502 12.8785 392.771 12.3727 391.544 12.5533C390.341 12.7367 389.024 13.651 388.937 15.6574C388.539 24.8225 391.318 37.5696 394.008 49.8971C396.599 61.7689 399.045 72.982 398.333 79.8266C398.102 82.0442 397.652 84.3563 396.059 84.6898C394.008 85.1178 392.104 82.0303 388.341 75.5609C384.27 68.5718 378.693 58.9982 373.003 57.5476C371.636 57.203 369.828 57.7088 369.209 58.6175C368.825 59.1817 368.949 59.8875 369.582 60.7184C372.031 63.9392 375.56 71.8287 379.642 80.966C386.507 96.3226 395.051 115.434 402.353 121.144C409.32 126.591 410.49 138.241 411.343 146.75L411.546 148.726C413.052 162.901 412.973 177.049 412.391 193.931C412.244 198.202 412.306 202.538 412.369 206.734C412.606 223.155 412.829 238.664 401.664 252.462C395.339 260.276 386.9 265.464 377.905 267.068C364.559 269.458 349.865 263.603 340.455 252.184C332.971 243.099 328.538 230.436 328.601 218.305C328.657 207.245 329.632 195.059 336.412 188.532C343.082 182.112 349.586 162.231 354.809 146.258C357.914 136.762 360.598 128.561 362.697 125.11C363.24 124.218 363.29 123.504 362.852 122.981C362.143 122.142 360.299 121.822 358.968 122.303C353.459 124.321 348.913 134.408 345.594 141.77C342.523 148.587 340.963 151.891 338.87 151.632C337.251 151.463 336.562 149.209 336.101 147.025C334.677 140.289 335.94 128.889 337.277 116.817C338.664 104.284 340.096 91.3232 338.743 82.2471C338.446 80.2601 337.042 79.4848 335.824 79.4209C334.553 79.3986 332.915 80.0434 332.361 82.1887C332.361 82.186 332.361 82.1832 332.361 82.1832C332.366 82.1832 332.344 82.4277 332.307 82.814C331.197 94.3328 328.94 114.75 326.318 122.045C325.439 124.482 324.699 125.852 323.465 125.668C321.617 125.385 321.354 122.259 320.84 106.421C320.557 97.712 320.207 86.8741 319.173 76.5641C318.981 74.6466 318.17 73.1543 316.896 72.3623C315.961 71.7815 314.845 71.6564 313.831 72.0121C311.345 72.8959 311.415 75.0718 311.819 79.9128C311.901 80.9104 311.989 81.9831 312.051 83.1252C312.218 86.196 312.562 90.27 312.924 94.5802C314.565 113.994 314.904 122.35 312.757 123.845C312.288 124.171 311.703 124.215 311.15 123.973C308.816 122.94 307.686 115.873 305.669 99.988C304.454 90.4339 303.2 80.5547 301.547 77.2783C301.047 76.2806 299.993 75.8499 298.872 76.1778C297.487 76.578 296.007 78.2037 296.388 81.4634L297.075 87.466C297.821 93.9799 298.903 103.478 298.914 103.578C301.558 128.814 298.264 129.378 297.024 129.592C292.306 130.393 286.955 110.976 285.452 104.998C284.466 101.075 283.204 100.469 281.627 100.724C281.011 100.833 280.571 101.13 280.243 101.664C277.873 105.499 281.986 118.46 285.619 129.898C286.944 134.069 288.196 138.01 289.182 141.606C290.405 146.052 291.953 150.19 293.589 154.573C297.03 163.776 300.587 173.294 301.152 186.181C301.33 192.291 301.293 198.539 301.256 204.577C301.2 214.181 301.14 224.116 301.945 233.69C303.242 249.099 300.174 264.178 293.306 276.144C285.311 290.075 271.55 299.234 257.396 300.046C246.672 300.641 236.484 296.706 226.616 292.879C217.553 289.366 208.177 285.731 198.532 285.729H198.523C184.067 285.729 171.057 293.629 158.471 301.269L157.141 302.077C145.874 308.908 132.912 315.997 119.224 315.997L119.236 316Z" stroke="white" stroke-opacity="0.2" stroke-width="2" mask="url(#path-1-outside-1_3890_3655)"/>
<path d="M418.601 104.465L417.858 103.476C411.544 95.0581 407.535 89.3196 405.732 84.8899C403.094 78.4093 405.568 75.4053 406.755 74.4132C408.848 72.6624 412.078 72.5707 414.79 74.1853C416.51 75.208 417.846 77.1421 418.697 79.1402C421.172 73.585 424.723 71.9121 427.469 72.3151C430.449 72.7486 432.554 75.5414 432.585 79.1096C432.656 86.8157 426.243 94.8636 420.587 101.964L418.601 104.465ZM410.741 74.8967C409.702 74.8967 408.73 75.208 407.984 75.8332C406.136 77.3756 405.958 80.4241 407.492 84.1951C409.151 88.2663 412.846 93.6214 418.646 101.38L419.095 100.813C424.291 94.2939 430.757 86.1821 430.692 79.1263C430.667 76.4974 429.229 74.4549 427.192 74.1603C424.963 73.8351 421.604 75.7721 419.527 82.2971L418.426 85.7597L417.694 82.2026C417.231 79.9433 415.815 76.9726 413.812 75.7804C412.82 75.1885 411.75 74.8967 410.741 74.8967Z" stroke="white" stroke-opacity="0.2" stroke-width="2" mask="url(#path-1-outside-1_3890_3655)"/>
</svg>
