<svg width="438" height="577" viewBox="0 0 438 577" fill="none" xmlns="http://www.w3.org/2000/svg">
<path id="Vector" d="M436.981 134.347L436.41 129.647C436.192 128.083 435.926 126.525 435.682 124.964C435.551 124.185 435.445 123.403 435.291 122.624L434.833 120.29C434.676 119.511 434.535 118.732 434.365 117.957L433.833 115.636C432.41 109.452 430.608 103.352 428.454 97.3767C424.149 85.4231 418.367 73.9856 411.279 63.3751C407.734 58.0699 403.859 52.973 399.663 48.1358C395.461 43.305 390.938 38.7338 386.123 34.4736C376.497 25.9564 365.682 18.6637 353.976 13.0892C342.282 7.51465 329.736 3.55576 316.882 1.60036C291.171 -2.38418 264.496 1.14517 240.609 11.3678C228.662 16.471 217.369 23.2284 207.25 31.5469C197.137 39.8622 188.222 49.7834 181.122 60.9741C177.564 66.5614 174.529 72.4982 171.964 78.6337C169.406 84.7723 167.435 91.1611 165.986 97.6556C165.925 97.928 165.874 98.2037 165.816 98.4762C164.582 96.9215 163.313 95.3892 162.005 93.8826C160.79 92.4593 159.501 91.0905 158.226 89.7153C156.908 88.369 155.604 87.0162 154.225 85.7212C151.485 83.1215 148.632 80.6115 145.599 78.2907C142.573 75.9634 139.432 73.7548 136.121 71.7609C132.813 69.7702 129.377 67.9527 125.819 66.3595C122.248 64.7888 118.561 63.4488 114.798 62.3397C111.032 61.2274 107.166 60.4452 103.281 59.8714C95.4919 58.8232 87.6257 58.7911 79.9294 59.8073C64.5305 61.8172 49.8495 67.7988 37.4028 76.9507C31.1842 81.5347 25.5298 86.9361 20.7024 93.0491C18.308 96.0912 16.125 99.2808 14.1409 102.583C12.1631 105.884 10.4322 109.317 8.88715 112.808C8.51532 113.687 8.11143 114.555 7.77165 115.443L6.73309 118.104C6.09841 119.896 5.45732 121.685 4.91881 123.499C3.81293 127.118 2.87373 130.779 2.17174 134.465C1.46013 138.152 0.931234 141.854 0.562608 145.56C0.206804 149.259 0.0369151 152.965 0.00165526 156.664C-0.07207 171.464 2.31919 186.069 6.73629 200.007C11.1374 213.589 16.6571 226.703 23.1161 239.281C29.6264 251.831 36.9765 263.878 45.0253 275.386C53.1095 286.868 61.8187 297.857 71.0632 308.342C89.6034 329.265 110.186 348.194 132.12 365.277C133.48 366.36 134.868 367.408 136.255 368.45L140.416 371.592L144.628 374.663C146.032 375.688 147.433 376.714 148.859 377.705L153.123 380.702C154.539 381.705 155.991 382.661 157.424 383.641C160.287 385.613 163.2 387.501 166.108 389.402C167.553 390.363 169.034 391.274 170.499 392.204C171.971 393.127 173.432 394.066 174.913 394.973C177.888 396.768 180.84 398.602 183.844 400.342C189.831 403.856 195.861 407.222 201.877 410.536C207.964 413.892 214.042 417.188 220.062 420.528C219.837 423.214 219.623 425.904 219.434 428.593C218.934 435.44 218.385 442.281 217.924 449.128L216.61 469.673C216.196 476.523 215.856 483.377 215.475 490.227C215.289 493.657 215.093 497.068 214.949 500.526C214.799 503.982 214.68 507.479 214.664 511.012C214.645 518.067 214.949 525.299 216.289 532.531C217.622 539.779 219.969 546.975 223.726 553.576C227.482 560.153 232.672 566.209 239.407 570.427C242.76 572.521 246.388 574.171 250.151 575.223C253.911 576.284 257.771 576.893 261.614 576.98C269.31 577.201 276.888 575.617 283.876 572.703C287.363 571.219 290.703 569.386 293.829 567.219C296.954 565.045 299.842 562.506 302.432 559.666C303.089 558.967 303.685 558.204 304.311 557.474L305.993 555.291L307.606 553.044C308.128 552.281 308.628 551.502 309.138 550.729C311.125 547.6 312.872 544.283 314.296 540.805C317.158 533.865 318.687 526.283 318.668 518.753C318.7 511.214 317.228 503.803 314.86 496.856C312.459 489.91 309.196 483.383 305.4 477.28C297.752 465.092 288.226 454.446 277.808 444.942C272.599 440.178 267.14 435.706 261.451 431.526C260.031 430.478 258.588 429.452 257.139 428.449L252.812 425.503L248.446 422.631L244.051 419.826C240.75 417.752 237.429 415.729 234.102 413.735C234.259 412.283 234.416 410.828 234.573 409.376L235.672 399.201L236.881 389.04L238.096 378.881L238.708 373.803L239.378 368.732L242.096 348.454L245.029 328.207C245.507 324.832 246.074 321.469 246.597 318.1L248.199 307.999C249.238 301.261 250.405 294.542 251.555 287.823L253.293 277.745L255.129 267.686L256.979 257.63L257.912 252.604L258.902 247.587L262.874 227.533L267.102 207.533C267.541 205.453 267.993 203.376 268.454 201.298C279.029 201.882 289.556 203.119 299.964 205.062C314.119 207.69 328.066 211.495 341.551 216.599L341.888 216.727C342.548 216.97 343.241 217.156 343.962 217.275C349.972 218.253 355.636 214.175 356.617 208.168C357.595 202.157 353.517 196.493 347.51 195.512C345.622 195.205 343.754 194.852 341.878 194.522L336.278 193.458C335.346 193.284 334.416 193.099 333.486 192.909L330.672 192.445L325.05 191.512C323.178 191.194 321.319 190.845 319.443 190.557L313.805 189.752L308.18 188.918C307.247 188.765 306.301 188.672 305.359 188.559L302.535 188.226C292.393 186.979 282.212 186.078 272.019 185.546C277.949 159.668 284.414 133.923 291.489 108.359L291.505 108.298C291.579 108.026 291.646 107.75 291.704 107.471C293.143 100.444 288.61 93.5813 281.584 92.142C274.558 90.7027 267.695 95.2353 266.255 102.262C260.624 129.788 255.306 157.36 250.411 184.988C237.564 184.995 224.742 185.581 212.01 186.482L206.391 186.87L200.791 187.319L189.613 188.223C182.17 188.809 174.779 189.46 167.377 189.861C166.797 189.896 166.149 189.979 165.563 190.111C159.639 191.441 155.914 197.323 157.245 203.251C158.575 209.174 164.457 212.899 170.384 211.569L170.435 211.556C184.917 208.303 199.31 205.6 213.728 203.677C225.017 202.193 236.326 201.25 247.629 200.984C244 222.221 240.634 243.493 237.589 264.811L236.108 275.011L234.73 285.224C233.816 292.032 232.842 298.831 232.021 305.653L230.739 315.875C230.319 319.283 229.861 322.687 229.489 326.101L227.114 346.566C225.665 360.225 224.197 373.877 222.94 387.549L221.969 397.8L221.267 406.17C217.004 403.695 212.747 401.243 208.516 398.785C202.624 395.358 196.781 391.912 191.043 388.366C188.164 386.607 185.347 384.763 182.504 382.955C181.087 382.045 179.692 381.096 178.285 380.17C176.885 379.234 175.471 378.32 174.089 377.352C162.966 369.745 152.119 361.722 141.689 353.204C131.242 344.706 121.116 335.821 111.468 326.463C101.826 317.1 92.5685 307.361 83.84 297.2C75.1501 287.009 66.9506 276.428 59.4306 265.42C51.9363 254.399 45.16 242.936 39.2203 231.107C33.3383 219.259 28.3634 206.998 24.5393 194.471C20.8819 182.267 19.0292 169.496 19.2984 156.917C19.5581 144.351 22.0615 131.958 27.1101 120.963C28.3827 118.223 29.7802 115.552 31.3637 113.013C32.9504 110.478 34.6814 108.038 36.5565 105.734C40.2909 101.169 44.6856 97.101 49.5418 93.6486C59.2479 86.7309 70.8067 82.3137 82.5643 80.9321C88.4431 80.23 94.3731 80.3518 100.133 81.1885C103.005 81.6565 105.858 82.2592 108.647 83.1279C111.436 83.9902 114.176 85.0256 116.856 86.2405C119.523 87.4875 122.136 88.8915 124.677 90.4494C127.219 92.0073 129.665 93.7672 132.047 95.6296C134.432 97.4857 136.707 99.5244 138.91 101.653C140.022 102.704 141.083 103.823 142.154 104.926C143.192 106.067 144.25 107.192 145.247 108.381C153.321 117.79 159.947 128.721 164.973 140.303C166.877 144.678 171.471 147.512 176.458 146.954C182.584 146.265 186.991 140.742 186.302 134.616V134.577C185.084 123.775 185.465 112.888 187.777 102.419C188.931 97.1876 190.482 92.0426 192.527 87.0868C194.572 82.1309 197.008 77.3258 199.871 72.761C205.57 63.6123 212.846 55.3836 221.216 48.3634C229.579 41.3303 239.041 35.509 249.135 31.0693C254.187 28.8606 259.386 26.9693 264.698 25.4531C270.009 23.94 275.423 22.7732 280.888 21.9718C286.36 21.1993 291.88 20.789 297.4 20.7537C302.919 20.7152 308.436 21.1191 313.898 21.8564C324.832 23.3182 335.499 26.4789 345.571 31.0532C355.633 35.6436 365.089 41.6701 373.606 48.8955C382.126 56.1145 389.72 64.5035 396.214 73.7067C402.708 82.9131 408.074 92.953 412.225 103.483C420.575 124.544 423.483 147.656 422.002 170.708C421.617 176.474 420.995 182.244 420.168 188.005C419.299 193.762 418.235 199.506 416.998 205.232C415.741 210.954 414.28 216.65 412.709 222.327C411.119 228.001 409.366 233.646 407.523 239.272C405.654 244.891 403.689 250.491 401.634 256.072C399.567 261.647 397.409 267.202 395.198 272.744C392.964 278.277 390.71 283.816 388.402 289.336L381.398 305.9L381.389 305.922C380.488 308.063 381.398 310.567 383.511 311.612C385.706 312.699 388.367 311.801 389.454 309.605C400.128 288.051 410.552 266.208 419.21 243.413C421.348 237.707 423.399 231.953 425.294 226.132C427.166 220.301 428.906 214.416 430.458 208.456C431.983 202.491 433.355 196.471 434.48 190.377C435.577 184.28 436.455 178.125 437.086 171.922C437.676 165.713 437.984 159.459 438 153.186C438 146.909 437.628 140.617 436.977 134.343L436.981 134.347ZM237.471 430.529L241.782 433.161L246.045 435.848L250.257 438.595C251.639 439.515 253.001 440.444 254.357 441.4C259.774 445.214 264.999 449.324 269.98 453.696C274.955 458.075 279.686 462.723 284.065 467.64C288.447 472.555 292.476 477.754 295.98 483.229C299.467 488.704 302.435 494.462 304.545 500.443C306.628 506.422 307.885 512.615 307.897 518.779C307.968 524.943 306.724 531.034 304.4 536.753C303.24 539.615 301.797 542.382 300.124 545.033L298.829 547.001L297.454 548.928L296.002 550.803C295.508 551.367 295.056 551.96 294.537 552.502C286.472 561.391 273.971 566.609 261.97 566.17C255.979 565.968 250.148 564.311 245.295 561.182C242.875 559.65 240.641 557.666 238.673 555.461C236.698 553.245 234.97 550.764 233.489 548.1C230.528 542.763 228.604 536.746 227.537 530.54C226.454 524.289 226.203 517.779 226.341 511.163C226.482 504.556 226.97 497.757 227.447 490.939C227.931 484.13 228.374 477.321 228.89 470.519L230.576 450.119C231.165 443.32 231.848 436.53 232.477 429.738C232.537 429.055 232.605 428.375 232.669 427.692C234.275 428.632 235.878 429.577 237.467 430.536L237.471 430.529Z" fill="white" fill-opacity="0.1"/>
</svg>
