<svg width="342" height="341" viewBox="0 0 342 341" fill="none" xmlns="http://www.w3.org/2000/svg">
<path d="M341.252 158.608C341.089 156.166 340.861 153.67 340.554 150.975C338.935 136.756 335.341 122.362 329.872 108.195C324.294 93.7507 317.056 80.3013 308.352 68.2213C307.43 66.9418 305.757 66.5655 304.373 67.3265C302.991 68.0875 302.416 69.7015 303.006 71.1629C309.073 86.2243 312.901 99.4374 314.384 110.434C316.481 125.981 313.804 136.585 306.43 141.958C303.959 143.758 301.166 142.771 296.439 140.873C292.167 139.156 286.85 137.022 280.522 137.887C280.089 137.946 279.702 138.186 279.458 138.546C279.213 138.905 279.131 139.355 279.236 139.777C280.886 146.503 283.666 152.84 287.501 158.612C288.69 160.402 290.645 162.905 293.211 164.661C295.889 166.494 298.699 167.103 301.339 166.419L301.469 166.386C302.042 166.235 303.495 165.854 304.041 165.965C304.013 166.147 303.886 166.475 303.838 166.601C300.691 174.824 296.7 182.756 291.977 190.182C291.691 190.633 291.4 191.085 291.109 191.539C287.779 196.728 284.335 202.095 284.342 208.41C284.342 211.095 284.998 213.671 285.629 216.163C286.334 218.939 287.001 221.563 286.769 224.185C286.443 227.854 284.373 231.527 280.44 235.42C279.784 236.07 279.085 236.721 278.412 237.352C276.491 239.146 274.505 241 272.949 243.271C271.851 244.883 271.028 246.624 270.231 248.309C269.736 249.359 269.265 250.35 268.736 251.316C264.898 258.288 257.342 263.404 249.016 264.667C247.954 264.828 246.902 264.564 246.054 263.927C245.228 263.306 244.699 262.398 244.565 261.374C244.118 257.952 242.834 254.531 241.592 251.224C240.166 247.423 238.69 243.492 238.537 239.654C238.38 235.767 239.543 231.993 240.772 227.998C241.155 226.752 241.552 225.462 241.901 224.181C243.871 216.961 243.436 211.21 240.611 207.083C240.034 206.238 239.369 205.481 238.728 204.752C237.705 203.589 236.741 202.492 236.3 201.221C235.786 199.747 235.916 197.859 236.039 196.036C236.244 193.025 236.476 189.613 233.764 187.401C232.681 186.513 231.383 186.12 230.371 185.877C224.32 184.422 218.24 185.942 212.359 187.414C211.788 187.556 211.217 187.7 210.649 187.838C204.83 189.268 198.169 190.353 192.888 187.56C189.471 185.752 184.673 181.685 182.467 167.324C181.46 160.741 180.876 153.835 183.406 147.935C184.312 145.826 185.583 143.9 186.927 141.862C188.468 139.526 190.059 137.112 191.079 134.369C191.454 133.355 191.746 132.311 192.028 131.306C192.616 129.207 193.172 127.223 194.389 125.724C196.432 123.206 200.04 122.364 203.873 121.659C207.966 120.909 212.056 120.156 216.143 119.404C219.865 118.718 223.586 118.032 227.312 117.348C228.669 117.097 230.013 117.827 230.582 119.123C231.974 122.287 234.571 124.764 237.709 125.922C242.192 127.563 247.467 126.393 250.833 123.012C251.009 122.836 251.182 122.655 251.356 122.471C251.912 121.881 252.437 121.325 252.968 121.168C253.484 121.018 254.201 121.181 254.954 121.352C256.679 121.758 258.393 122.487 260.21 123.259C262.154 124.085 264.164 124.94 266.507 125.565C268.105 125.993 269.817 125.726 271.207 124.831C272.573 123.953 273.507 122.537 273.769 120.959C273.842 120.535 273.869 120.02 273.848 119.391C273.668 113.15 269.054 107.769 262.876 106.594C255.38 105.172 245.063 102.141 238.466 95.7766C237.093 94.449 234.876 93.8762 232.679 94.2818C230.283 94.7271 228.485 96.7383 228.493 98.9691C228.497 99.3538 228.552 99.6988 228.6 100.004C228.638 100.249 228.675 100.479 228.667 100.637C228.648 101.024 228.24 101.451 227.772 101.568C227.21 101.71 226.499 101.526 225.918 101.091C225.606 100.857 225.301 100.539 224.977 100.201C224.523 99.7301 224.011 99.1949 223.354 98.7642C220.638 97.0018 217.199 98.0053 214.995 99.7824C213.563 100.936 212.505 102.354 211.483 103.728C211.048 104.311 210.638 104.861 210.203 105.388C207.059 109.19 202.66 111.317 198.731 110.936C196.503 110.723 194.289 109.508 192.812 107.687C191.602 106.195 191.037 104.457 191.226 102.797C191.391 101.323 192.171 100.04 193.206 99.5273C193.962 99.1573 194.956 99.1029 196.007 99.0465L196.415 99.0235C197.908 98.9336 199.614 98.6973 200.939 97.6227C201.853 96.8889 202.449 95.7536 202.535 94.587C202.608 93.5898 202.3 92.6615 201.652 91.9611C201.092 91.3694 200.421 91.0747 199.881 90.8384C199.727 90.7715 199.582 90.7067 199.446 90.6398C198.608 90.2258 197.966 89.3352 197.728 88.2627C197.49 87.1881 197.697 86.1093 198.284 85.3754C199.116 84.3322 200.534 83.774 202.037 83.1802C203.482 82.6115 204.977 82.022 206.25 80.9285C207.699 79.6804 208.52 78.0727 209.317 76.5172C209.758 75.6558 210.174 74.8446 210.674 74.1317C211.995 72.2605 213.615 71.1796 215.503 70.9183C217.059 70.6904 218.201 69.413 218.219 67.8826V67.8596C218.244 66.0951 217.521 64.502 216.283 63.5946C215.286 62.8671 214.107 62.6768 213.241 62.5367C212.319 62.3904 211.059 62.1876 209.823 62.6266C209.582 62.7103 209.361 62.8148 209.125 62.9256C208.131 63.3918 207.107 63.8727 205.158 62.4594C202.447 60.49 202.068 56.0033 202.271 53.6638C202.727 48.4789 204.525 43.4738 207.473 39.1921C208.345 37.9272 209.16 36.999 210.038 36.2714C220.444 27.6598 241.222 36.5202 259.551 44.3394C269.075 48.4016 278.071 52.238 285 53.3753C287.281 53.7475 289.437 52.6582 290.495 50.5968C291.55 48.5333 291.176 46.1457 289.539 44.515C272.962 27.9776 229.371 0 171.161 0C150.192 0 129.72 3.76115 110.307 11.1768C91.5552 18.3416 74.342 28.6947 59.1422 41.9476C55.5586 45.0732 52.0629 48.3911 48.7491 51.8094C47.1392 53.4715 46.8235 56.0305 47.9838 58.0355C48.655 59.1958 49.9345 60.0258 51.4106 60.26C53.2818 60.5569 55.2241 59.8983 56.88 58.4076C63.746 52.2275 70.8964 47.2872 78.1325 43.7205C87.2691 39.2172 96.5897 36.8965 105.833 36.8233C105.879 36.8233 105.923 36.8233 105.969 36.8233C109.845 36.8233 114.434 38.1384 115.814 40.6869C117.384 43.5825 115.649 46.1771 113.92 47.8413C110.893 50.7536 107.598 52.6018 104.11 54.5566C102.465 55.4786 100.765 56.4319 99.0233 57.5337C91.8813 62.0642 87.9486 68.3677 88.5048 74.3951C88.7807 77.3932 90.2986 80.3494 93.0187 83.1823C95.007 85.2542 97.8902 86.2284 100.729 85.7894C103.569 85.3503 106.023 83.5503 107.292 80.9745C107.591 80.3682 107.859 79.7452 108.087 79.118C108.348 78.403 108.586 77.6733 108.821 76.9688C109.588 74.6397 110.313 72.4403 111.708 70.7176C113.6 68.376 116.824 67.4478 119.195 67.0798C126.609 65.932 132.007 68.7921 134.587 71.8487C136.412 74.0167 137.316 77.2071 136.943 80.1738C136.634 82.6492 135.49 84.7085 133.728 85.9713C132.699 86.7072 131.482 87.2132 130.194 87.7463C129.015 88.2355 127.794 88.7415 126.644 89.4627C123.673 91.3235 121.633 95.1097 123.362 98.2206C123.6 98.6513 123.885 99.013 124.135 99.3308C124.779 100.152 124.953 100.372 124.564 101.227C124.232 101.961 123.602 102.609 122.787 103.054C119.764 104.727 116.527 106.059 113.171 107.008C112.015 107.334 110.838 107.629 109.592 107.94C103.483 109.469 96.5562 111.202 93.2529 117.028C92.0528 119.148 91.5468 121.488 91.0576 123.752C90.5202 126.24 90.0122 128.592 88.6427 130.405C87.405 132.046 85.4962 133.219 83.4765 134.461C80.5139 136.284 77.4488 138.167 76.3491 141.747C75.908 143.185 75.9017 144.605 75.8954 145.978C75.8912 146.915 75.887 147.799 75.7449 148.629C75.678 149.022 75.5379 149.434 75.3414 149.819C75.0068 150.471 74.388 150.559 74.1371 150.567C73.5747 150.584 73.0729 150.31 72.7906 149.836C71.1076 146.994 69.1987 143.773 66.2445 141.536C63.3655 139.359 59.3492 138.613 56.2486 139.683C53.7982 140.528 52.0713 142.424 51.3834 145.017C50.9653 146.578 50.9778 148.293 51.4169 150.116C52.9619 156.478 58.1094 160.479 63.0895 164.349C64.0638 165.106 65.0695 165.888 66.0145 166.664C68.9625 169.076 79.803 180.838 86.8029 195.408C86.9827 195.783 87.3047 196.067 87.6977 196.201C88.0908 196.333 88.5194 196.301 88.8895 196.113C89.4414 195.831 89.9934 195.561 90.5349 195.308C92.542 194.365 94.7728 194.001 96.9849 194.257C108.605 195.618 119.074 199.63 127.259 205.858C128.881 207.093 129.051 208.16 129.306 209.778C129.601 211.636 129.967 213.949 132.705 216.51C137.79 221.262 143.381 220.957 148.79 220.662C152.917 220.436 157.184 220.204 161.641 222.05C168.292 224.806 168.263 229.794 167.981 230.601C167.627 231.617 166.994 232.571 166.325 233.58C166.011 234.053 165.689 234.54 165.386 235.046C162.904 239.196 162.168 243.963 161.457 248.571C161.276 249.743 161.089 250.958 160.876 252.125C159.626 258.963 157.1 263.46 153.375 265.491C153.143 265.616 152.898 265.737 152.639 265.865C151.844 266.258 150.945 266.701 150.182 267.431C148.932 268.622 148.405 270.201 147.941 271.593L147.834 271.911C146.91 274.652 145.417 277.121 143.837 279.734C143.061 281.018 142.256 282.346 141.528 283.707C140.776 285.112 139.569 286.236 138.292 287.424C135.333 290.18 131.652 293.608 132.937 301.9C133.895 308.072 136.542 312.27 138.292 315.046C138.783 315.826 139.373 316.761 139.597 317.294C139.467 317.333 139.287 317.377 139.038 317.419C134.863 317.348 130.144 313.564 125.384 306.466C121.029 299.972 118.001 292.774 117.177 290.723C114.574 284.244 112.433 277.543 110.508 271.267C108.689 265.327 105.868 257.841 100.18 252.645C98.1139 250.76 95.7576 249.25 93.4787 247.793C90.6039 245.953 87.888 244.216 85.7826 241.813C82.4562 238.025 80.9132 232.734 79.5542 228.067C78.6406 224.906 77.9151 221.866 79.0504 219.437C79.3472 218.797 79.7905 218.159 80.2588 217.482C81.2728 216.021 82.4207 214.363 82.2973 212.245C82.2032 210.595 81.3502 209.289 80.5996 208.137C80.0665 207.321 79.5647 206.55 79.4121 205.787C79.1005 204.256 80.1898 202.548 81.1662 201.377C81.5697 200.888 82.1677 200.336 82.9433 199.736C83.28 199.475 83.4932 199.088 83.5329 198.664C83.5727 198.239 83.4347 197.819 83.1545 197.501C77.3276 190.913 69.481 181.972 68.6781 181.004C64.0136 175.403 57.6473 171.165 49.7568 168.411L49.5456 168.338C48.2222 167.876 46.9698 167.441 46.259 166.601C45.7049 165.94 45.4373 164.962 45.2115 164.019C44.6574 161.69 44.3167 159.2 43.9884 156.793C43.2943 151.719 42.5771 146.472 39.8403 141.933C37.4255 137.923 33.9779 131.555 31.9415 122.573C29.3197 111.003 29.8319 98.5426 33.4656 85.5364C34.0594 83.4102 33.0412 81.2045 31.0466 80.2867C28.9956 79.3459 26.5661 80.0902 25.3932 82.0178C16.403 96.7969 9.75021 112.784 5.62097 129.537C3.3964 138.542 1.9036 147.82 1.18229 157.115C0.839411 161.504 0.667969 166.007 0.667969 170.504C0.667969 175.001 0.841501 179.505 1.18229 183.889C1.9036 193.182 3.39849 202.462 5.62097 211.469C12.4034 238.983 26.1626 264.631 45.4122 285.645C49.7401 290.368 54.3627 294.879 59.1485 299.052C74.3462 312.305 91.5593 322.658 110.313 329.823C129.724 337.239 150.199 341 171.167 341C204.908 341 237.525 331.163 265.491 312.558L265.757 312.381C265.863 312.309 265.968 312.24 266.087 312.161C276.167 305.393 285.554 297.524 293.988 288.768C302.431 280.002 309.949 270.318 316.332 259.986C322.797 249.52 328.126 238.339 332.172 226.756C336.311 214.902 339.134 202.546 340.56 190.031C340.867 187.33 341.095 184.832 341.258 182.398C341.53 178.489 341.668 174.489 341.668 170.506C341.668 166.523 341.53 162.522 341.258 158.614L341.252 158.608ZM338.183 182.183C338.024 184.572 337.8 187.023 337.497 189.676C336.098 201.965 333.328 214.097 329.261 225.736C325.289 237.107 320.056 248.086 313.708 258.361C307.44 268.509 300.058 278.018 291.766 286.627C283.482 295.226 274.264 302.956 264.379 309.592C264.266 309.667 264.153 309.74 264.04 309.815L263.783 309.987C236.321 328.257 204.291 337.916 171.161 337.916C150.569 337.916 130.464 334.224 111.407 326.942C92.9936 319.907 76.0899 309.74 61.166 296.725C56.466 292.628 51.927 288.198 47.6744 283.558C28.7719 262.925 15.2614 237.741 8.60029 210.725C6.41754 201.881 4.94983 192.77 4.24107 183.642C3.90446 179.337 3.73511 174.913 3.73511 170.496C3.73511 166.078 3.90446 161.654 4.24107 157.345C4.94983 148.217 6.41754 139.106 8.60029 130.267C12.6564 113.819 19.1879 98.1203 28.015 83.6109C28.2701 83.1907 28.7217 82.9523 29.1859 82.9523C29.3782 82.9523 29.5706 82.9921 29.7566 83.0778C30.3692 83.36 30.6808 84.0437 30.4968 84.7043C26.725 98.2081 26.1982 111.177 28.935 123.25C31.0675 132.667 34.672 139.328 37.1997 143.52C39.6083 147.515 40.2522 152.225 40.9359 157.209C41.2746 159.689 41.6259 162.254 42.2154 164.732C42.5123 165.978 42.9138 167.404 43.9027 168.583C45.1592 170.069 46.951 170.692 48.5295 171.242L48.7386 171.315C56.096 173.883 62.0086 177.805 66.3093 182.969C67.0933 183.914 74.02 191.81 79.803 198.358C79.4142 198.72 79.0796 199.071 78.7953 199.414C76.7568 201.86 75.9498 204.212 76.3951 206.397C76.6648 207.735 77.3861 208.841 78.0217 209.818C78.6427 210.769 79.1779 211.59 79.226 212.423C79.2866 213.482 78.5653 214.524 77.729 215.73C77.2063 216.483 76.6669 217.262 76.2592 218.136C74.5427 221.81 75.7783 226.089 76.5979 228.924C78.0489 233.9 79.6922 239.539 83.4681 243.841C85.8599 246.57 88.8895 248.508 91.8186 250.383C94.0871 251.836 96.2322 253.208 98.1034 254.916C103.242 259.609 105.86 266.601 107.564 272.166C109.508 278.507 111.674 285.281 114.319 291.867C115.17 293.989 118.302 301.436 122.824 308.178C128.306 316.351 133.801 320.497 139.153 320.497C139.233 320.497 139.312 320.49 139.392 320.478C140.46 320.311 141.949 319.938 142.538 318.644C143.232 317.118 142.25 315.558 140.891 313.403C139.275 310.84 136.835 306.968 135.973 301.425C134.936 294.746 137.462 292.396 140.385 289.674C141.79 288.365 143.243 287.012 144.236 285.156C144.926 283.866 145.708 282.571 146.465 281.323C148.062 278.683 149.714 275.95 150.747 272.889L150.857 272.561C151.242 271.407 151.606 270.318 152.302 269.653C152.726 269.247 153.345 268.942 154 268.62C154.274 268.484 154.556 268.346 154.84 268.192C159.425 265.693 162.474 260.473 163.899 252.675C164.119 251.466 164.309 250.231 164.493 249.037C165.189 244.521 165.848 240.256 168.022 236.62C168.288 236.175 168.576 235.74 168.884 235.276C169.628 234.151 170.4 232.991 170.878 231.613C171.75 229.133 170.929 222.567 162.814 219.203C157.711 217.089 152.879 217.352 148.618 217.587C143.418 217.871 138.93 218.115 134.802 214.26C132.835 212.42 132.607 210.972 132.34 209.293C132.049 207.463 131.721 205.389 129.118 203.407C120.493 196.845 109.504 192.622 97.334 191.198C94.5533 190.878 91.7475 191.336 89.2261 192.519C89.1132 192.571 89.0003 192.626 88.8853 192.68C81.5844 178.131 71.072 166.831 67.961 164.284C66.9867 163.484 65.9643 162.687 64.9733 161.918C60.4113 158.372 55.6945 154.707 54.4045 149.39C54.0867 148.075 54.07 146.871 54.3544 145.809C54.783 144.189 55.7573 143.106 57.2501 142.591C59.3889 141.853 62.3243 142.428 64.3879 143.988C66.8592 145.859 68.5276 148.677 70.1416 151.402C70.9905 152.836 72.5628 153.691 74.2291 153.641C75.8891 153.588 77.3276 152.683 78.0782 151.22C78.4148 150.561 78.6573 149.842 78.7744 149.148C78.9605 148.069 78.9646 147.013 78.9709 145.993C78.9772 144.791 78.9814 143.653 79.2887 142.65C80.0476 140.181 82.4938 138.676 85.0864 137.082C87.2607 135.744 89.5104 134.362 91.0973 132.259C92.8744 129.905 93.4787 127.108 94.0641 124.402C94.524 122.27 94.9589 120.257 95.929 118.544C98.5822 113.865 104.558 112.37 110.339 110.924C111.553 110.621 112.808 110.307 114.01 109.968C117.593 108.954 121.049 107.533 124.271 105.749C125.662 104.988 126.761 103.834 127.368 102.498C128.532 99.9413 127.297 98.367 126.559 97.4283C126.362 97.1774 126.174 96.9391 126.055 96.7237C125.25 95.277 126.556 93.1486 128.281 92.0677C129.214 91.4844 130.263 91.0475 131.376 90.5875C132.766 90.0105 134.207 89.4147 135.522 88.4718C137.991 86.703 139.58 83.8911 139.998 80.5564C140.481 76.7095 139.339 72.7121 136.943 69.8646C132.963 65.148 125.984 62.9151 118.729 64.0378C114.501 64.6922 111.334 66.2874 109.32 68.7795C107.57 70.9392 106.721 73.5129 105.902 76.005C105.666 76.72 105.444 77.3953 105.199 78.0643C105.009 78.587 104.785 79.1075 104.537 79.6135C103.698 81.3153 102.141 82.4589 100.263 82.7495C98.3857 83.0401 96.5563 82.4213 95.2412 81.0519C93.0166 78.7354 91.7831 76.4001 91.5719 74.1129C90.9091 66.9188 98.3731 61.5917 100.675 60.1303C102.346 59.0725 104.01 58.14 105.62 57.2368C109.285 55.1817 112.747 53.2415 116.059 50.0553C119.542 46.7039 120.441 42.7546 118.526 39.2193C116.45 35.3849 110.64 33.7082 105.816 33.7458C96.1067 33.8232 86.3366 36.2505 76.7798 40.9608C69.2907 44.6509 61.9062 49.7522 54.829 56.1204C53.8756 56.9776 52.8344 57.3685 51.8977 57.2201C51.2287 57.1135 50.8105 56.7622 50.6537 56.4946C50.1791 55.6751 50.3088 54.6297 50.9653 53.9503C54.2185 50.5947 57.6515 47.3353 61.1702 44.2662C76.094 31.2516 92.9978 21.0867 111.411 14.0515C130.47 6.76966 150.575 3.07541 171.165 3.07541C228.372 3.07541 271.128 30.4885 287.373 46.6872C288.189 47.5005 288.109 48.5124 287.764 49.1898C287.417 49.8651 286.643 50.5215 285.506 50.3355C278.945 49.2588 270.116 45.4934 260.766 41.5065C241.627 33.3444 219.934 24.091 208.083 33.8985C206.994 34.7995 205.968 35.9599 204.945 37.4443C201.698 42.1651 199.716 47.6782 199.212 53.3941C199.095 54.7364 198.748 61.598 203.358 64.9452C206.775 67.4248 209.248 66.2644 210.438 65.7062C210.603 65.6289 210.757 65.5557 210.856 65.5222C211.353 65.3445 212.102 65.4658 212.76 65.5703C213.377 65.6707 214.075 65.7836 214.475 66.0742C214.897 66.3836 215.163 67.0694 215.15 67.8199C215.15 67.8199 215.15 67.8241 215.15 67.8283C215.14 67.8408 215.113 67.8638 215.079 67.868C212.365 68.2422 209.976 69.7935 208.167 72.3567C207.54 73.2473 207.055 74.1965 206.586 75.1122C205.894 76.4628 205.242 77.7402 204.253 78.5932C203.375 79.3459 202.181 79.8163 200.918 80.3139C199.189 80.9954 197.23 81.7669 195.89 83.4499C194.711 84.9218 194.289 86.9163 194.734 88.9213C195.177 90.9262 196.402 92.5549 198.083 93.387C198.282 93.4873 198.472 93.5689 198.654 93.6504C198.968 93.7884 199.294 93.9305 199.411 94.056C199.48 94.1313 199.48 94.2755 199.474 94.357C199.451 94.6707 199.262 95.0261 199.012 95.2289C198.359 95.7578 197.293 95.8895 196.237 95.9522L195.844 95.9752C194.594 96.0421 193.176 96.1195 191.853 96.7676C189.867 97.7502 188.455 99.9287 188.173 102.452C187.891 104.938 188.692 107.484 190.427 109.625C192.413 112.074 195.409 113.711 198.441 113.999C203.452 114.484 208.736 111.996 212.581 107.347C213.064 106.759 213.517 106.153 213.954 105.565C214.903 104.29 215.802 103.088 216.931 102.178C218.27 101.1 220.333 100.466 221.68 101.342C222.041 101.578 222.392 101.944 222.765 102.331C223.139 102.722 223.565 103.165 224.078 103.55C225.405 104.545 227.072 104.917 228.531 104.549C230.314 104.102 231.667 102.515 231.749 100.78C231.772 100.309 231.705 99.8911 231.646 99.5231C231.611 99.3015 231.579 99.0946 231.577 98.944C231.575 98.2353 232.355 97.468 233.248 97.3028C234.465 97.0791 235.675 97.3467 236.336 97.9865C243.478 104.877 254.402 108.114 262.307 109.613C267.078 110.52 270.641 114.668 270.779 119.481C270.796 119.999 270.768 120.286 270.741 120.443C270.618 121.187 270.193 121.827 269.547 122.241C268.885 122.667 268.071 122.795 267.308 122.59C265.174 122.019 263.265 121.21 261.419 120.424C259.478 119.6 257.645 118.82 255.65 118.35C254.644 118.12 253.392 117.836 252.102 118.214C250.774 118.609 249.898 119.537 249.125 120.357C248.972 120.518 248.82 120.681 248.663 120.838C246.164 123.347 242.098 124.25 238.78 123.033C236.459 122.176 234.45 120.25 233.407 117.882C232.259 115.272 229.522 113.809 226.762 114.321C223.036 115.005 219.315 115.69 215.593 116.376C211.506 117.129 207.419 117.881 203.325 118.632C199.984 119.247 194.933 120.177 192.008 123.786C190.389 125.78 189.722 128.168 189.074 130.476C188.796 131.467 188.535 132.406 188.202 133.3C187.308 135.711 185.88 137.877 184.368 140.168C183.009 142.23 181.602 144.362 180.588 146.723C177.751 153.333 178.357 160.753 179.436 167.79C180.592 175.325 183.097 185.854 191.458 190.28C197.653 193.556 205.01 192.396 211.391 190.826C211.964 190.686 212.539 190.541 213.114 190.397C218.633 189.015 224.341 187.589 229.658 188.867C230.35 189.034 231.222 189.287 231.824 189.78C233.206 190.907 233.181 192.816 232.976 195.825C232.832 197.957 232.681 200.163 233.4 202.228C234.038 204.066 235.251 205.446 236.421 206.78C237.03 207.472 237.603 208.124 238.075 208.816C240.369 212.165 240.657 217.06 238.937 223.367C238.6 224.603 238.211 225.866 237.835 227.089C236.582 231.155 235.288 235.359 235.466 239.771C235.639 244.105 237.201 248.272 238.715 252.3C239.951 255.589 241.117 258.696 241.517 261.767C241.759 263.617 242.713 265.256 244.205 266.379C245.719 267.518 247.59 267.989 249.478 267.702C258.73 266.3 267.141 260.586 271.433 252.792C272.01 251.744 272.52 250.661 273.016 249.616C273.796 247.966 274.534 246.407 275.493 244.998C276.857 243.009 278.634 241.349 280.518 239.591C281.21 238.947 281.923 238.278 282.61 237.597C287.08 233.173 289.445 228.87 289.838 224.446C290.116 221.302 289.353 218.299 288.617 215.395C288.005 212.981 287.425 210.7 287.423 208.398C287.419 202.985 290.614 198.005 293.704 193.19C293.999 192.732 294.291 192.277 294.58 191.821C299.414 184.223 303.497 176.105 306.715 167.694C306.943 167.105 307.323 166.118 307.003 165.012C306.811 164.366 306.113 162.867 303.773 162.867C303.76 162.867 303.748 162.867 303.735 162.867C302.696 162.873 301.584 163.166 300.691 163.4L300.568 163.433C295.69 164.698 291.297 158.755 290.068 156.904C286.763 151.926 284.283 146.507 282.684 140.772C287.459 140.572 291.601 142.234 295.297 143.72C299.916 145.575 304.279 147.327 308.247 144.437C325.876 131.594 316.69 96.891 305.874 70.0298C314.417 81.8923 321.526 95.1013 327.005 109.295C332.381 123.219 335.912 137.356 337.501 151.316C337.802 153.963 338.028 156.413 338.187 158.811C338.454 162.652 338.588 166.582 338.588 170.494C338.588 174.405 338.452 178.334 338.185 182.176L338.183 182.183Z" fill="white" fill-opacity="0.2"/>
</svg>
