<svg width="606" height="235" viewBox="0 0 606 235" fill="none" xmlns="http://www.w3.org/2000/svg">
<path d="M387.806 235C387.806 235 387.816 235 387.822 235C389.993 234.992 391.884 233.512 392.414 231.404L444.646 23.3468L491.717 192.842C492.255 194.779 493.953 196.169 495.957 196.312C497.958 196.455 499.837 195.322 500.644 193.479L534.478 116.315L542.2 136.002C542.914 137.823 544.669 139.021 546.621 139.021H608.581C611.204 139.021 613.332 136.89 613.332 134.263C613.332 131.637 611.204 129.506 608.581 129.506H549.86L539.143 102.188C538.442 100.4 536.734 99.2084 534.816 99.1716C532.89 99.1328 531.143 100.255 530.373 102.015L497.302 177.437L448.991 3.48232C448.413 1.4026 446.511 -0.0301328 444.355 0.000481284C442.198 0.0270135 440.331 1.50465 439.807 3.59661L387.741 210.988L357.081 92.2692C356.561 90.2588 354.802 88.8179 352.731 88.7098C350.665 88.5996 348.759 89.8486 348.033 91.7916L323.068 158.553L315.144 132.776C314.53 130.78 312.69 129.418 310.603 129.418H5.08295C2.45984 129.418 0.332031 131.549 0.332031 134.176C0.332031 136.802 2.45984 138.933 5.08295 138.933H307.095L318.089 174.694C318.686 176.639 320.455 177.988 322.487 178.05C324.521 178.113 326.366 176.87 327.077 174.964L351.651 109.248L383.208 231.434C383.75 233.535 385.641 235 387.806 235Z" fill="white" fill-opacity="0.2"/>
</svg>
