<svg width="40" height="40" viewBox="0 0 40 40" fill="none" xmlns="http://www.w3.org/2000/svg">
<path d="M20.7596 19.1752C20.7537 19.169 20.752 19.1608 20.746 19.1548L14.7268 13.1356V9.35351C14.7268 9.07331 14.6156 8.80555 14.4179 8.60776L8.08969 2.20932C7.78896 1.90866 7.33473 1.81697 6.9402 1.98073C6.54575 2.14343 6.28924 2.52868 6.28924 2.95506V6.11916H3.05483C2.62852 6.11909 2.24327 6.37552 2.08057 6.77005C1.91681 7.16451 2.00744 7.61775 2.30923 7.91954L8.70774 14.318C8.90553 14.5158 9.17329 14.627 9.45342 14.627H13.2355L19.2546 20.6461C19.2607 20.6522 19.2689 20.6538 19.2751 20.6598C19.6857 21.0517 20.3094 21.0569 20.7256 20.6598C21.1638 20.2415 21.1539 19.5883 20.7596 19.1752Z" fill="#3F3F3F"/>
<path d="M20.0001 1C17.3014 1 14.7498 1.68661 12.4521 2.7591L15.6875 5.9945C17.0454 5.54295 18.4926 5.28912 20.0002 5.28912C27.5602 5.28904 33.7111 11.4401 33.7111 19.0001C33.7111 26.5601 27.5602 32.7111 20.0001 32.7111C12.44 32.7111 6.28904 26.5602 6.28904 19.0001C6.28904 17.4926 6.54295 16.0453 6.99443 14.6874L3.75903 11.452C2.68668 13.7498 2 16.3014 2 19.0001C2 28.8868 10.1134 37.0002 20.0001 37.0002C29.8868 37.0002 38.0002 28.8868 38.0002 19.0001C38.0002 9.11339 29.8869 1 20.0001 1Z" fill="#3F3F3F"/>
<path d="M20 10.4082C18.8852 10.4082 17.8305 10.6367 16.8359 10.9913V12.2622L19.2742 14.7004C19.5137 14.6669 19.7515 14.627 20 14.627C22.9077 14.627 25.2735 16.9928 25.2735 19.9005C25.2735 22.8082 22.9077 25.174 20 25.174C17.0924 25.174 14.7265 22.8082 14.7265 19.9005C14.7265 19.6519 14.7665 19.4141 14.8 19.1747L12.3618 16.7363H11.0909C10.7363 17.7309 10.5078 18.7856 10.5078 19.9004C10.5078 25.1348 14.7658 29.3927 20 29.3927C25.2343 29.3927 29.4924 25.1348 29.4924 19.9004C29.4924 14.6661 25.2344 10.4082 20 10.4082Z" fill="#3F3F3F"/>
</svg>
