<svg width="41" height="40" viewBox="0 0 41 40" fill="none" xmlns="http://www.w3.org/2000/svg">
<g clip-path="url(#clip0_3228_2339)">
<path d="M7.36462 14.2188C4.77939 14.2188 2.67712 12.1165 2.67712 9.53125C2.67712 6.94602 4.77939 4.84375 7.36462 4.84375C9.94986 4.84375 12.0521 6.94602 12.0521 9.53125C12.0521 12.1165 9.94986 14.2188 7.36462 14.2188Z" fill="#3F3F3F"/>
<path d="M33.3021 14.2188C30.7169 14.2188 28.6146 12.1165 28.6146 9.53125C28.6146 6.94602 30.7169 4.84375 33.3021 4.84375C35.8874 4.84375 37.9896 6.94602 37.9896 9.53125C37.9896 12.1165 35.8874 14.2188 33.3021 14.2188Z" fill="#3F3F3F"/>
<path d="M20.3334 11.7188C17.1027 11.7188 14.474 9.09008 14.474 5.85938C14.474 2.62867 17.1027 0 20.3334 0C23.5641 0 26.1927 2.62867 26.1927 5.85938C26.1927 9.09008 23.5641 11.7188 20.3334 11.7188Z" fill="#3F3F3F"/>
<path d="M21.5052 11.8379V19.9226C21.5052 20.5703 20.9811 21.0945 20.3334 21.0945C19.6856 21.0945 19.1615 20.5703 19.1615 19.9226V11.8379C15.1967 12.4127 12.1302 15.8011 12.1302 19.9226V26.9538C12.1302 27.6016 12.6544 28.1257 13.3021 28.1257H15.9274L16.8224 38.9273C16.8727 39.5338 17.3808 40.0007 17.9896 40.0007H22.6771C23.286 40.0007 23.7941 39.5338 23.8444 38.9273L24.7393 28.1257H27.3646C28.0124 28.1257 28.5365 27.6016 28.5365 26.9538V19.9226C28.5365 15.8011 25.4701 12.4127 21.5052 11.8379Z" fill="#3F3F3F"/>
<path d="M9.70837 27.1094V20.0781C9.70837 18.3216 10.181 16.6892 10.9436 15.2311C9.89134 14.603 8.67666 14.2188 7.36462 14.2188C3.48736 14.2188 0.333374 17.3727 0.333374 21.25V27.1094C0.333374 27.7571 0.857515 28.2812 1.50525 28.2812H2.78814L3.8547 38.9448C3.91423 39.5434 4.41892 40 5.02087 40H9.70837C10.3103 40 10.815 39.5434 10.8745 38.9448L11.7407 30.2852C10.5442 29.7238 9.70837 28.5162 9.70837 27.1094Z" fill="#3F3F3F"/>
<path d="M40.3334 21.25C40.3334 17.3727 37.1794 14.2188 33.3021 14.2188C31.9901 14.2188 30.7754 14.603 29.7231 15.2311C30.4857 16.6892 30.9584 18.3216 30.9584 20.0781V27.1094C30.9584 28.5162 30.1225 29.7238 28.926 30.2852L29.7922 38.9448C29.8517 39.5434 30.3564 40 30.9584 40H35.6459C36.2478 40 36.7525 39.5434 36.812 38.9448L37.8786 28.2812H39.1615C39.8092 28.2812 40.3334 27.7571 40.3334 27.1094V21.25Z" fill="#3F3F3F"/>
</g>
<defs>
<clipPath id="clip0_3228_2339">
<rect width="40" height="40" fill="white" transform="translate(0.333374)"/>
</clipPath>
</defs>
</svg>
