<svg width="20" height="20" viewBox="0 0 20 20" fill="none" xmlns="http://www.w3.org/2000/svg">
<g clip-path="url(#clip0_3978_755)">
<path d="M10 0C4.47734 0 0 4.47734 0 10C0 15.5227 4.47734 20 10 20C15.5227 20 20 15.5227 20 10C20 4.47734 15.5227 0 10 0Z" fill="black"/>
<path d="M10.1176 17.5912H10.1132C7.84801 17.5758 6.10656 16.829 4.93652 15.3708C3.89496 14.0733 3.35805 12.2679 3.34 10.0055V9.99449C3.35805 7.73148 3.89496 5.92664 4.93652 4.62918C6.10602 3.17098 7.84801 2.4241 10.1127 2.40879H10.1214C11.8579 2.42027 13.3106 2.86695 14.4396 3.73523C15.5009 4.55156 16.2478 5.71504 16.66 7.19402L15.3697 7.55379C14.6715 5.0491 12.9044 3.76859 10.117 3.74836C8.2766 3.76148 6.88512 4.33996 5.98023 5.46738C5.13277 6.52316 4.6948 8.04809 4.67895 9.99945C4.69535 11.9514 5.13328 13.4762 5.98023 14.5316C6.88512 15.6589 8.2766 16.2374 10.117 16.2505C11.7758 16.2385 12.8737 15.852 13.7868 14.9575C14.8289 13.9366 14.8098 12.6846 14.4763 11.923C14.28 11.4741 13.9235 11.1001 13.4429 10.8168C13.3221 11.6709 13.0503 12.3642 12.6304 12.8864C12.0705 13.5834 11.2767 13.9646 10.2717 14.0187C9.51117 14.0596 8.77852 13.8798 8.20988 13.5118C7.53738 13.0766 7.14371 12.4106 7.1016 11.6364C7.06059 10.8836 7.35914 10.1914 7.94195 9.68723C8.4991 9.20555 9.28262 8.92289 10.2083 8.87094C10.8906 8.83266 11.5287 8.86273 12.1186 8.96117C12.0404 8.49152 11.8819 8.11918 11.6457 7.85016C11.3209 7.48 10.8184 7.29082 10.153 7.28645H10.1345C9.60027 7.28645 8.87473 7.43297 8.41215 8.12078L7.30059 7.37336C7.91953 6.45316 8.925 5.94688 10.1339 5.94688H10.1612C12.1826 5.95945 13.386 7.19566 13.5058 9.3548C13.5746 9.38383 13.6419 9.41383 13.7086 9.44504C14.6518 9.88848 15.3412 10.5599 15.7032 11.3866C16.2073 12.5391 16.2537 14.4173 14.7234 15.9154C13.5544 17.0602 12.135 17.577 10.1213 17.5906H10.117L10.1176 17.5912ZM10.7518 10.1952C10.5988 10.1952 10.4434 10.1995 10.2849 10.2088C9.12305 10.2745 8.39914 10.8064 8.44016 11.5642C8.48336 12.3581 9.35926 12.7271 10.2007 12.6818C10.9754 12.6402 11.9837 12.3389 12.1526 10.3345C11.725 10.2433 11.2549 10.1952 10.7518 10.1952Z" fill="white"/>
</g>
<defs>
<clipPath id="clip0_3978_755">
<rect width="20" height="20" fill="white"/>
</clipPath>
</defs>
</svg>
